<svg width="628" height="616" viewBox="0 0 628 616" fill="none" xmlns="http://www.w3.org/2000/svg">
<g clip-path="url(#clip0_2202_3)">
<rect width="627.202" height="627.202" fill="#006D5A"/>
<path d="M239.488 219.022C239.47 217.521 239.775 216.034 240.381 214.657C240.988 213.279 241.884 212.041 243.011 211.024C244.062 209.992 245.312 209.174 246.687 208.615C248.062 208.056 249.536 207.769 251.025 207.768C252.532 207.743 254.028 208.019 255.421 208.578C256.815 209.138 258.078 209.97 259.132 211.024C260.208 212.067 261.055 213.315 261.62 214.69C262.185 216.066 262.457 217.54 262.419 219.022L261.764 348.475C261.764 358.305 261.502 365.47 257.233 374.865C254.404 381.196 250.393 386.955 245.407 391.848C240.396 396.709 234.473 400.578 227.963 403.242C221.253 406.024 214.035 407.441 206.748 407.408C205.237 407.427 203.737 407.149 202.338 406.59C200.938 406.031 199.668 405.203 198.602 404.155C197.535 403.107 196.695 401.859 196.131 400.487C195.566 399.115 195.289 397.646 195.315 396.167C195.305 394.682 195.597 393.21 196.174 391.837C196.751 390.463 197.603 389.216 198.678 388.169C199.753 387.121 201.031 386.293 202.437 385.735C203.843 385.176 205.349 384.897 206.866 384.914C210.976 384.936 215.046 384.129 218.822 382.543C222.515 380.988 225.904 378.82 228.841 376.134C231.76 373.492 234.138 370.33 235.847 366.816C239.082 360.164 238.781 354.96 238.807 347.962L239.488 219.022Z" fill="white"/>
<path d="M278.038 260.575C278.042 253.545 279.478 246.586 282.262 240.105C285.046 233.624 289.121 227.751 294.251 222.829C299.297 218 305.217 214.132 311.708 211.421C321.71 207.289 332.745 206.167 343.402 208.198C354.059 210.23 363.856 215.324 371.543 222.829C376.502 227.733 380.474 233.507 383.251 239.85C386.15 246.387 387.61 253.449 387.533 260.575L387.468 281.89C387.48 283.379 387.188 284.856 386.609 286.233C386.03 287.611 385.175 288.861 384.096 289.911C383.016 290.96 381.733 291.788 380.321 292.345C378.91 292.903 377.399 293.178 375.878 293.156H311.144C308.747 293.163 306.428 293.995 304.594 295.506C302.76 297.017 301.528 299.112 301.113 301.423C300.526 306.085 301.288 310.815 303.313 315.073C304.959 318.736 307.246 322.089 310.071 324.981C312.918 327.875 316.359 330.147 320.168 331.646C324.068 333.214 328.248 334.011 332.465 333.992C338.575 334.049 344.571 332.374 349.73 329.17C354.889 325.965 358.99 321.368 361.538 315.932L361.852 315.048C362.633 312.959 364.067 311.165 365.951 309.921C367.879 308.635 370.166 307.964 372.499 307.998C374.026 307.971 375.541 308.261 376.945 308.848C378.349 309.436 379.61 310.308 380.645 311.408C381.698 312.436 382.531 313.659 383.096 315.006C383.66 316.353 383.944 317.796 383.932 319.252C383.92 320.68 383.603 322.09 383.002 323.392L382.399 324.584C378.186 333.963 371.32 341.968 362.611 347.655C353.683 353.583 343.109 356.684 332.321 356.537C325.056 356.58 317.859 355.171 311.171 352.397C304.689 349.738 298.8 345.867 293.832 341.002C288.859 336.079 284.878 330.283 282.098 323.917C279.199 317.38 277.74 310.318 277.815 303.192L278.038 260.562V260.575ZM364.471 260.69C364.798 259.934 364.052 255.166 363.829 254.141C363.409 252.283 362.799 250.471 362.009 248.732C360.366 245.064 358.079 241.706 355.252 238.812C352.398 235.924 348.959 233.654 345.155 232.147C337.377 228.962 328.628 228.919 320.818 232.026C313.008 235.134 306.771 241.139 303.47 248.732C301.859 252.481 301.031 256.508 301.034 260.575V261.626C301.287 264.083 302.463 266.36 304.333 268.018C306.203 269.675 308.635 270.595 311.158 270.598H354.374C357.068 270.591 359.651 269.542 361.557 267.678C363.463 265.815 364.539 263.289 364.55 260.652L364.471 260.69Z" fill="white"/>
<path d="M403.329 260.575C403.34 253.544 404.781 246.586 407.566 240.106C410.352 233.626 414.427 227.752 419.555 222.829C424.602 218 430.521 214.132 437.012 211.421C447.015 207.289 458.049 206.167 468.706 208.198C479.363 210.23 489.16 215.324 496.847 222.829C501.807 227.733 505.778 233.507 508.555 239.85C511.448 246.389 512.907 253.449 512.837 260.575L512.353 354.14C512.355 361.28 510.825 368.341 507.861 374.865C505.016 381.2 500.988 386.96 495.983 391.848C490.969 396.712 485.041 400.582 478.526 403.242C471.822 406.013 464.613 407.422 457.337 407.382C455.825 407.401 454.326 407.123 452.926 406.565C451.527 406.006 450.257 405.178 449.19 404.129C448.124 403.081 447.284 401.834 446.719 400.462C446.155 399.09 445.878 397.621 445.904 396.142C445.893 394.657 446.185 393.185 446.763 391.811C447.34 390.438 448.191 389.191 449.267 388.143C450.342 387.095 451.62 386.268 453.026 385.709C454.432 385.15 455.937 384.871 457.455 384.888C461.66 384.891 465.824 384.085 469.712 382.517C473.541 381.019 477.003 378.748 479.875 375.852C482.736 372.967 485.059 369.614 486.737 365.945C487.844 363.554 488.615 361.027 489.029 358.434C489.448 355.678 487.457 348.77 479.469 352.141C472.562 355.043 465.115 356.513 457.599 356.46C450.453 356.483 443.374 355.122 436.769 352.456C430.163 349.79 424.162 345.871 419.11 340.926C414.146 336.03 410.173 330.259 407.402 323.917C404.528 317.379 403.091 310.322 403.185 303.205L403.395 260.575H403.329ZM426.103 303.205C426.07 307.283 426.927 311.32 428.617 315.048C430.254 318.715 432.542 322.07 435.375 324.955C438.22 327.853 441.661 330.124 445.472 331.62C449.35 333.189 453.507 333.995 457.703 333.991C461.848 334.007 465.958 333.255 469.817 331.774C473.54 330.363 476.943 328.251 479.836 325.558C482.677 322.879 484.997 319.717 486.685 316.227C488.438 312.612 489.436 308.69 489.618 304.692L489.841 260.588C489.881 256.511 489.028 252.472 487.34 248.745C485.697 245.077 483.41 241.719 480.582 238.824C477.726 235.934 474.282 233.663 470.472 232.159C464.648 229.769 458.23 229.127 452.032 230.313C445.835 231.5 440.137 234.462 435.663 238.824C432.736 241.661 430.404 245.031 428.801 248.745C427.164 252.487 426.321 256.517 426.326 260.588L426.103 303.218V303.205Z" fill="white"/>
<path d="M187.009 352.346C180.259 355.146 172.993 356.555 165.662 356.486C158.398 356.527 151.201 355.119 144.512 352.346C138.03 349.688 132.14 345.817 127.173 340.951C100.929 315.125 114.47 270.636 156.718 270.636H187.585C189.973 270.624 192.28 269.793 194.106 268.287C195.932 266.781 197.16 264.696 197.577 262.395C198.164 257.737 197.402 253.012 195.377 248.758C193.744 245.085 191.456 241.725 188.619 238.837C185.771 235.944 182.33 233.673 178.523 232.172C174.64 230.602 170.479 229.796 166.278 229.801C160.168 229.743 154.171 231.414 149.008 234.614C143.846 237.813 139.738 242.404 137.179 247.835L136.877 248.732C136.094 250.823 134.655 252.618 132.765 253.859C130.837 255.144 128.55 255.816 126.217 255.781C124.69 255.81 123.174 255.521 121.77 254.934C120.366 254.346 119.105 253.473 118.072 252.372C117.032 251.346 116.208 250.13 115.649 248.793C115.089 247.456 114.805 246.024 114.811 244.579C114.825 243.151 115.142 241.742 115.741 240.439L116.382 239.324C120.588 229.944 127.45 221.938 136.157 216.253C145.068 210.298 155.633 207.166 166.422 207.281C173.568 207.26 180.648 208.623 187.253 211.292C193.859 213.96 199.86 217.881 204.911 222.829C209.879 227.726 213.852 233.502 216.619 239.85C224.804 258.268 221.15 322.341 221.15 345.245C221.176 346.725 220.899 348.195 220.333 349.568C219.768 350.941 218.926 352.189 217.859 353.237C216.791 354.286 215.519 355.114 214.118 355.672C212.717 356.23 211.216 356.506 209.704 356.486C208.212 356.49 206.735 356.204 205.357 355.645C203.979 355.086 202.728 354.265 201.676 353.23C197.224 349.09 196.556 348.308 186.956 352.346H187.009ZM143.439 324.968C146.32 327.815 149.753 330.072 153.535 331.608C161.438 334.769 170.293 334.769 178.195 331.608C185.86 328.466 191.969 322.52 195.22 315.035C196.848 311.29 197.69 307.262 197.695 303.192V302.128C197.434 299.675 196.256 297.402 194.388 295.746C192.519 294.09 190.092 293.168 187.572 293.156H157.451C136.367 293.156 131.6 313.369 143.439 324.968Z" fill="white"/>
</g>
<defs>
<clipPath id="clip0_2202_3">
<rect width="627.202" height="615.14" fill="white"/>
</clipPath>
</defs>
</svg>
