<svg xmlns="http://www.w3.org/2000/svg" viewBox="0 0 3000 2181" width="3000" height="2181"><g transform="translate(2050.9090909090905 462.27272727272725) rotate(0.0 401.59090909090924 558.4090909090909) scale(1.364138941140995 1.367309233371917)"><svg width="588.783" height="816.8" viewBox="0 0 588.783 816.8"><g><rect x="3" y="3" width="582.783" height="810.8" rx="50" ry="50" style="fill:#fff"/><path d="M535.783 816.8H53c-29.224 0-53-23.775-53-53V53C0 23.775 23.776 0 53 0h482.783c29.224 0 53 23.775 53 53v710.801c0 29.225-23.776 53-53 53ZM53 6C27.084 6 6 27.084 6 53v710.801c0 25.916 21.084 47 47 47h482.783c25.916 0 47-21.084 47-47V53c0-25.916-21.084-47-47-47H53Z" style="fill:#0b122d"/></g><g><path style="fill:#fff" d="M57.143 45.604h474.498v356.55H57.143z"/><path d="M531.641 405.154H57.143a3 3 0 0 1-3-3V45.604a3 3 0 0 1 3-3h474.498a3 3 0 0 1 3 3v356.55a3 3 0 0 1-3 3Zm-471.498-6h468.498V48.604H60.143v350.55Z" style="fill:#0b122d"/></g></svg></g><g transform="translate(2123.181818181818 429.5454545454545) rotate(0.0 327.9545454545455 295.2272727272727) scale(1.365061021917034 1.3652443882044565)"><svg width="480.498" height="432.49" viewBox="0 0 480.498 432.49"><path d="m300.728 337.59-1.745-.049 3.256-74.148-108.824-4.778-3.335 75.952C94.364 345.182 27.625 360.755 3 383.626v45.865h474.498v-41.044c-26.051-24.983-89.729-45.286-176.77-50.856z" fill="#fff"/><path d="M477.498 432.49H3a3 3 0 0 1-3-3v-45.865c0-.834.347-1.631.958-2.198 23.584-21.904 84.521-38.121 186.237-49.558l3.222-73.387c.073-1.655 1.488-2.927 3.128-2.865l108.824 4.777a3.001 3.001 0 0 1 2.866 3.129l-3.124 71.149c83.147 5.464 149.436 24.73 177.463 51.608.59.565.923 1.348.923 2.165v41.044a3 3 0 0 1-3 3zM6 426.49h468.498v-36.748c-27.703-25.598-92.513-43.94-173.91-49.155l-1.691-.048a2.998 2.998 0 0 1-2.911-3.131l3.124-71.151-102.83-4.514-3.204 72.954a3 3 0 0 1-2.667 2.85c-99.122 10.993-161.145 26.94-184.41 47.41v41.533z" fill="#0b122d"/><path d="M300.248 308.745c26.713-9.166 44.46-25.791 53.697-42.567 11.866-21.548 16.217-40.579 17.031-73.799C372.7 121.99 357.121 58.947 260.861 56.59c-96.26-2.358-114.907 59.847-116.631 130.236-.788 32.167 3.399 59.036 13.928 78.637 8.166 15.202 20.577 25.428 33.504 33.05l-.147 3.351" fill="#fff"/><path d="M300.248 311.745a3 3 0 0 1-.973-5.839c31.506-10.811 46.13-30.438 52.043-41.176 11.647-21.151 15.852-39.427 16.66-72.425 1.574-64.291-9.93-130.335-107.189-132.717-43.359-1.062-73.197 10.899-91.239 36.563-14.206 20.209-21.298 49.044-22.319 90.746-.807 32.923 3.76 58.878 13.572 77.144 6.766 12.597 17.36 23.026 32.385 31.887a2.999 2.999 0 0 1 1.473 2.716l-.147 3.352c-.073 1.655-1.49 2.923-3.128 2.865a3.001 3.001 0 0 1-2.866-3.129l.068-1.564c-15.18-9.237-26.009-20.14-33.072-33.286-10.311-19.194-15.117-46.154-14.284-80.13 1.051-42.941 8.49-72.826 23.409-94.05 19.284-27.434 50.801-40.226 96.294-39.111 45.512 1.114 76.346 15.435 94.264 43.778 13.862 21.928 19.829 52.142 18.777 95.083-.825 33.667-5.379 53.338-17.402 75.173-6.33 11.495-21.939 32.492-55.352 43.957-.322.11-.651.163-.974.163z" fill="#0b122d"/><path d="M147.587 179.266c8.603-18.927 42.21-77.822 110.03-98.027 96.031 28.296 95.779 75.927 109.077 106.449 2.878 6.605 20.858 2.887 22.868-9.876 5.628-35.741 11.963-112.222-38.728-147.475-65.18-45.331-172.111-29.117-205.79 11.007-32.273 38.45-41.633 91.287-20.84 134.155 13.121 27.049 23.382 3.767 23.382 3.767z" fill="#fff"/><path d="M373.265 193.9c-4.458 0-7.931-1.825-9.321-5.015-2.154-4.944-3.933-10.244-5.817-15.854-9.768-29.092-21.915-65.271-100.502-88.661-70.209 21.344-101.676 83.755-107.301 96.127-.537 1.212-5.094 10.938-13.008 11.083-5.747.105-10.938-4.727-15.81-14.771-20.932-43.152-12.594-97.082 21.241-137.393 17.037-20.299 52.718-35.093 93.119-38.61 43.919-3.817 86.45 6.043 116.681 27.068 22.728 15.807 36.771 41.238 41.74 75.588 3.183 22.009 2.591 47.18-1.761 74.816-1.469 9.324-9.845 14.559-17.006 15.475-.775.1-1.528.147-2.255.147zM257.617 78.239c.286 0 .571.041.848.122 36.468 10.745 62.525 25.19 79.663 44.162 14.913 16.509 20.637 33.557 25.687 48.598 1.841 5.483 3.581 10.663 5.63 15.368.476 1.094 2.71 1.646 5.313 1.312 5.17-.662 10.897-4.466 11.841-10.457 6.28-39.881 9.762-111.691-37.478-144.545-61.61-42.848-167.62-30.222-201.779 10.474-32.317 38.501-40.339 89.89-20.438 130.916 4.843 9.984 8.495 11.406 10.302 11.392 3.29-.06 6.565-5.096 7.636-7.524a.292.292 0 0 1 .014-.031c5.822-12.81 38.582-77.817 111.905-99.661.279-.083.568-.125.856-.125z" fill="#0b122d"/><path d="M364.579 188.929c7.66-13.87 25.551-19.677 39.944-14.424 16.415 5.991 24.866 24.155 18.875 40.571-5.991 16.415-24.155 24.866-40.571 18.875-5.794-2.114-10.852-5.816-14.377-10.351-.753 4.478-1.585 8.825-2.552 12.946" fill="#fff"/><path d="M365.901 239.547a3 3 0 0 1-2.923-3.686c.875-3.729 1.698-7.902 2.514-12.758a2.998 2.998 0 0 1 2.225-2.412 2.996 2.996 0 0 1 3.103 1.068c3.229 4.153 7.859 7.482 13.037 9.373 14.835 5.418 31.31-2.249 36.724-17.085 2.623-7.187 2.29-14.965-.937-21.901s-8.961-12.2-16.148-14.822c-13.344-4.87-29.624.985-36.29 13.056a3 3 0 0 1-5.252-2.9c8.17-14.797 27.321-21.734 43.599-15.792 8.691 3.172 15.628 9.539 19.531 17.929 3.903 8.389 4.305 17.796 1.133 26.488-6.549 17.942-26.474 27.213-44.417 20.665a36.162 36.162 0 0 1-11.443-6.796 181.81 181.81 0 0 1-1.536 7.259 3.002 3.002 0 0 1-2.918 2.315z" fill="#0b122d"/><path d="M150.658 185.032c-6.335-16.095-25.202-22.276-39.821-17.691-16.674 5.23-25.95 22.986-20.721 39.66 5.23 16.674 22.986 25.95 39.66 20.721 5.885-1.846 11.717-5.095 15.446-9.464.301 3.472.886 7.742 1.655 12.53" fill="#fff"/><path d="M146.873 233.788a3 3 0 0 1-2.958-2.524c-.402-2.5-.737-4.756-1.009-6.793-3.41 2.555-7.594 4.657-12.232 6.112-8.829 2.771-18.207 1.936-26.408-2.35-8.201-4.284-14.243-11.506-17.012-20.335-2.77-8.828-1.935-18.207 2.35-26.408s11.507-14.243 20.335-17.012c15.348-4.817 36.347 1.253 43.511 19.454a3 3 0 0 1-5.583 2.198c-5.899-14.988-23.35-19.936-36.132-15.927-7.3 2.29-13.271 7.285-16.813 14.065s-4.232 14.535-1.943 21.835c2.29 7.299 7.285 13.27 14.065 16.812 6.781 3.542 14.535 4.23 21.834 1.942 5.871-1.842 10.997-4.957 14.062-8.549a3.002 3.002 0 0 1 5.271 1.689c.277 3.188.809 7.216 1.628 12.314a3 3 0 0 1-2.966 3.476z" fill="#0b122d"/></svg></g><g transform="translate(1156.3636363636363 466.3636363636363) rotate(0.0 401.5909090909091 558.4090909090909) scale(1.3641389411409945 1.367309233371917)"><svg width="588.783" height="816.8" viewBox="0 0 588.783 816.8"><g><rect x="3" y="3" width="582.783" height="810.8" rx="50" ry="50" style="fill:#fff"/><path d="M535.783 816.8H53c-29.224 0-53-23.775-53-53V53C0 23.775 23.776 0 53 0h482.783c29.224 0 53 23.775 53 53v710.801c0 29.225-23.776 53-53 53ZM53 6C27.084 6 6 27.084 6 53v710.801c0 25.916 21.084 47 47 47h482.783c25.916 0 47-21.084 47-47V53c0-25.916-21.084-47-47-47H53Z" style="fill:#0b122d"/></g><g><path style="fill:#fff" d="M57.143 45.604h474.498v356.55H57.143z"/><path d="M531.641 405.154H57.143a3 3 0 0 1-3-3V45.604a3 3 0 0 1 3-3h474.498a3 3 0 0 1 3 3v356.55a3 3 0 0 1-3 3Zm-471.498-6h468.498V48.604H60.143v350.55Z" style="fill:#0b122d"/></g></svg></g><g transform="translate(99.54545454545453 597.2727272727273) rotate(0.0 750.0 752.0454545454544) scale(1.3629325948055913 1.3632977021944765)"><svg width="1100.568" height="1103.274" viewBox="0 0 1100.568 1103.274"><path d="M554.08 450.7c-3.927 38.613-106.673 47.212-152.184 0V331.22H554.08z" fill="#f09c9a"/><path d="M488.647 486.03c-31.666 0-66.822-10.334-88.91-33.248a3.002 3.002 0 0 1-.84-2.082V331.22a3 3 0 0 1 3-3h152.184a3 3 0 0 1 3 3V450.7a2.8 2.8 0 0 1-.016.304c-1.279 12.58-11.838 22.915-29.73 29.101-11.236 3.885-24.62 5.926-38.688 5.926zm-83.75-36.554c29.543 29.683 85.878 36.92 120.478 24.958 15.482-5.352 24.604-13.833 25.706-23.892V334.22H404.897zm149.184 1.224h.01z" fill="#0b122d"/><path d="M554.08 396.986v28.227s-69.424-9.67-88.529-49.609c27.859 12.92 57.271 20.391 88.529 21.382z" fill="#0b122d"/><path d="M554.081 428.213a3.2 3.2 0 0 1-.414-.028c-2.9-.404-71.247-10.362-90.821-51.286a2.999 2.999 0 0 1 3.969-4.016c28.158 13.059 57.551 20.16 87.362 21.106a3 3 0 0 1 2.905 2.998v28.227a3.002 3.002 0 0 1-3 3zm-81.136-46.072c19.69 27.113 65.293 37.175 78.135 39.525v-21.792c-26.584-1.191-52.812-7.147-78.135-17.733z" fill="#0b122d"/><path d="M377.457 419.609s84.186 40.979 125.732 37.669c41.545-3.31 67.748-28.072 67.748-28.072s9.591 64.509-71.136 78.054-122.343-87.65-122.343-87.65z" fill="#bfdbfb"/><path d="M485.291 511.484c-28.607 0-55.731-13.974-79.2-41.004-20.581-23.704-30.976-48.679-31.408-49.73a2.997 2.997 0 0 1 .721-3.327 2.997 2.997 0 0 1 3.367-.511c.835.406 83.93 40.574 124.18 37.376 39.927-3.182 65.672-27.023 65.927-27.265a3.003 3.003 0 0 1 5.026 1.742c.103.693 2.432 17.185-5.508 35.578-7.314 16.943-25.066 38.655-68.098 45.876a90.635 90.635 0 0 1-15.006 1.266zm-101.607-85.633c4.577 9.156 13.665 25.438 27.039 40.812 26.444 30.4 56.249 43.064 88.581 37.638 32.285-5.417 53.641-19.577 63.475-42.087 4.662-10.673 5.51-20.827 5.499-26.879-9.448 7.31-32.498 22.355-64.851 24.934-35.001 2.786-97.97-24.415-119.743-34.417z" fill="#0b122d"/><path d="M401.897 331.22c-26.865-26.877-47.459-61.408-59.647-102.922-33.914-115.513 93.452-263.576 218.892-201.362C653.011 72.5 705.947 215.958 691.257 294.739c-13.698 73.462-90.746 113.465-166.704 99.495-23.647-4.349-45.947-11.813-66.426-22.243" fill="#f09c9a"/><path d="M554.982 400.028c-10.255 0-20.623-.939-30.973-2.844-23.917-4.398-46.541-11.975-67.244-22.52-1.477-.752-2.064-2.558-1.312-4.034s2.558-2.066 4.035-1.312c20.187 10.281 42.26 17.671 65.606 21.965 78.671 14.469 150.362-28.18 163.212-97.095 7.188-38.545-2.35-93.948-24.89-144.588-25.264-56.762-62.06-99.371-103.609-119.978C509.058 4.453 453.169 12.484 406.47 51.656c-53.365 44.764-78.59 117.054-61.343 175.796 11.787 40.145 31.6 74.344 58.891 101.646a3.001 3.001 0 0 1-4.243 4.243c-28.008-28.021-48.331-63.078-60.404-104.198-17.897-60.958 8.109-135.833 63.244-182.082 22.464-18.844 48.157-31.224 74.302-35.801 29.115-5.1 57.901-.728 85.557 12.988 42.798 21.226 80.594 64.877 106.425 122.912 23.008 51.692 32.705 108.451 25.307 148.128-6.652 35.671-28.48 65.712-61.464 84.588-23.216 13.287-50.061 20.15-77.759 20.151z" fill="#0b122d"/><path d="M310.962 167.98c-2.107 50.23 20.276 94.419 29.112 106.353 18.277 24.683 55.631 12.341 68.169.319 8.763-8.403-16.149-85.466-22.085-115.168z" fill="#0b122d"/><path d="M370.263 291.607c-1.427 0-2.851-.057-4.27-.178-11.86-1.005-21.657-6.299-28.33-15.312-10.572-14.278-31.743-59.528-29.699-108.264a3 3 0 0 1 2.661-2.855l75.196-8.496a3.002 3.002 0 0 1 3.279 2.394c1.727 8.641 5.15 21.61 8.774 35.341 4.367 16.544 9.316 35.295 12.318 50.362 4.754 23.864 2.871 29.588.127 32.218-7.835 7.514-24.022 14.79-40.056 14.79zm-56.39-120.937c-1.155 46.142 18.635 88.404 28.612 101.877 5.698 7.695 13.777 12.036 24.015 12.903 15.032 1.285 31.977-5.591 39.667-12.964.297-.286 2.774-3.46-1.859-26.716-2.966-14.887-7.89-33.543-12.234-50.003-3.292-12.473-6.419-24.321-8.294-32.996l-69.906 7.898z" fill="#0b122d"/><path d="M413.651 216.715c-1.661-14.071-7.059-44.565-3.703-60.541 20.403-97.133 161.558-137.748 213.379-78.293-4.069-42.616-93.397-106.961-206.805-56.263-113.001 50.515-135.399 121.006-115.809 217.438 8.692 2.305 18.52 3.046 29.133 2.42-5.171-22.564-4.825-45.71-1.616-69.159 6.208 25.226 15.196 47.642 29.252 64.936 17.963-4.227 37.109-11.311 56.167-20.538z" fill="#5c79f7"/><path d="M322.824 244.688c-8.354 0-16.023-.914-22.878-2.732a3 3 0 0 1-2.171-2.302c-10.741-52.872-8.066-93.492 8.418-127.834 18.163-37.839 53.852-68.24 109.106-92.941 82.5-36.88 143.087-10.747 165.306 2.199 26.331 15.343 43.845 37 45.708 56.519a3 3 0 0 1-5.248 2.256c-21.524-24.693-61.629-33.068-104.663-21.854-53.191 13.861-93.824 52.64-103.519 98.794-2.645 12.589.482 35.401 2.551 50.497.479 3.495.893 6.514 1.195 9.075a3 3 0 0 1-1.672 3.052c-19.721 9.548-38.827 16.531-56.787 20.757a3.003 3.003 0 0 1-3.015-1.027c-10.644-13.095-19.084-29.835-25.622-50.883-1.477 19.362-.402 36.664 3.237 52.544a3.003 3.003 0 0 1-2.748 3.665c-2.452.145-4.854.217-7.2.217zm-19.541-8.082c6.81 1.602 14.484 2.286 22.881 2.031-4.039-19.808-4.332-41.683-.904-66.728a3 3 0 0 1 5.885-.31c6.554 26.632 15.558 47.035 27.495 62.29 16.409-4.021 33.807-10.387 51.771-18.946-.259-2.023-.572-4.306-.919-6.84-2.125-15.506-5.337-38.938-2.479-52.546 5.297-25.217 19.047-48.421 39.763-67.104 18.885-17.032 42.439-29.571 68.115-36.262 40.633-10.59 78.98-4.343 103.059 16.173-5.676-14.826-20.508-30.532-40.364-42.103-21.42-12.482-79.873-37.652-159.837-1.905-102.012 45.603-135.276 107.185-114.464 212.249z" fill="#0b122d"/><path d="M410.419 275.292c-12.341-16.872-35.248-23.292-54.957-14.19-22.478 10.38-32.286 37.016-21.906 59.495 10.38 22.478 37.016 32.286 59.495 21.906a44.625 44.625 0 0 0 18.735-16.168" fill="#f09c9a"/><path d="M374.329 349.629c-18.088 0-35.429-10.305-43.497-27.775-11.057-23.944-.572-52.419 23.372-63.476 20.601-9.513 45.26-3.146 58.636 15.142a3 3 0 0 1-4.842 3.543c-11.696-15.99-33.261-21.558-51.278-13.237-20.94 9.67-30.109 34.572-20.44 55.513s34.575 30.109 55.513 20.44a41.722 41.722 0 0 0 17.48-15.084 3 3 0 0 1 5.026 3.279 47.716 47.716 0 0 1-19.99 17.252 47.567 47.567 0 0 1-19.979 4.403z" fill="#0b122d"/><path d="M506.285 217.955c11.005-8.87 23.18-14.26 38.162-20.087 9.606-3.736 7.202-15.008-8.109-17.596-14.391-2.432-38.644 9.622-43.948 23.686-5.533 14.673 4.912 21.237 13.894 13.998z" fill="#5c79f7"/><path d="M498.795 223.913c-2.256 0-4.402-.65-6.232-1.975-3.858-2.793-6.667-9.261-2.98-19.04 6.017-15.957 32.148-28.146 47.254-25.585 9.256 1.564 15.641 6.538 16.267 12.672.469 4.589-2.433 8.681-7.571 10.679-15.932 6.196-27.154 11.395-37.367 19.627-2.973 2.396-6.276 3.622-9.372 3.622zm7.49-5.958h.01zm26.146-34.992c-12.972 0-32.744 10.146-37.233 22.053-2.495 6.616-1.179 10.569.884 12.063 2.084 1.509 5.351.936 8.32-1.459 10.819-8.72 22.477-14.137 38.958-20.547 2.588-1.007 3.964-2.639 3.777-4.478-.273-2.674-3.925-6.119-11.298-7.365a20.52 20.52 0 0 0-3.407-.267z" fill="#0b122d"/><path d="M607.066 176.303c13.514-4.141 26.821-4.616 42.896-4.453 10.307.104 12.268-11.253-.983-19.35-12.454-7.61-39.45-5.441-49.604 5.643-10.593 11.562-3.339 21.541 7.692 18.161z" fill="#5c79f7"/><g fill="#0b122d"><path d="M602.868 179.963c-4.27 0-7.949-1.784-10.021-5.065-2.543-4.027-2.745-11.076 4.315-18.782 11.521-12.575 40.304-14.167 53.38-6.176 8.01 4.895 12.087 11.886 10.387 17.813-1.271 4.434-5.49 7.111-10.999 7.097-17.09-.168-29.446.479-41.986 4.322-1.74.533-3.451.792-5.076.792zm4.197-3.66h.01zm22.125-25.274c-10.586 0-21.985 3.007-27.604 9.14-4.776 5.214-5.025 9.373-3.666 11.526 1.374 2.175 4.62 2.856 8.266 1.74 13.284-4.071 26.125-4.759 43.805-4.586 2.802.056 4.662-.975 5.171-2.751.741-2.583-1.368-7.14-7.749-11.039-4.376-2.674-11.117-4.03-18.224-4.03z"/><ellipse cx="539.999" cy="229.748" rx="9.199" ry="10.951" transform="matrix(.95625371 -.29253861 .29253861 .95625371 -43.587 168.024)"/><ellipse cx="632.931" cy="203.464" rx="9.199" ry="10.951" transform="matrix(.95625371 -.29253861 .29253861 .95625371 -31.833 194.06)"/><path d="M547.184 316.227c-2.969 0-5.924-.318-8.805-.971-9.925-2.245-17.913-8.187-22.491-16.73a3.001 3.001 0 0 1 1.227-4.062 3.002 3.002 0 0 1 4.061 1.228c3.745 6.987 10.324 11.857 18.527 13.713 9.933 2.243 20.944-.148 29.457-6.406a3 3 0 0 1 3.554 4.834c-7.438 5.469-16.54 8.395-25.53 8.395zm-162.215-1.021c-.447 0-.901-.101-1.33-.313l-26.621-13.189a3.001 3.001 0 0 1 2.664-5.377l26.621 13.189a3.001 3.001 0 0 1-1.334 5.69z"/><path d="M365.558 324.171a3.001 3.001 0 0 1-2.8-4.077l11.899-30.978a3 3 0 1 1 5.601 2.152l-11.899 30.978a3.002 3.002 0 0 1-2.801 1.925z"/></g><path d="M664.705 97.663c-22.16-62.968-85.926-88.709-168.113-61-93.559 31.544-120.094 96.2-107.641 153.558 75.725-12.853 149.964-32.506 208.507-57.127-.52-21.805-8.7-41.387-21.98-59.488 27.148 9.673 47.797 23.116 57.649 42.818 11.539-6.028 22.119-12.289 31.578-18.762z" fill="#5c79f7"/><path d="M388.948 193.222a3.002 3.002 0 0 1-2.929-2.363c-6.842-31.514-1.848-62.175 14.442-88.668 18.675-30.371 50.695-53.375 95.172-68.37 40.553-13.672 78.098-14.873 108.577-3.472 30.125 11.27 52.022 34.202 63.325 66.318a3 3 0 0 1-1.136 3.472c-9.378 6.419-20.106 12.793-31.884 18.945a2.998 2.998 0 0 1-4.073-1.318c-7.82-15.64-23.256-28.095-47.056-37.916 11.035 17.354 16.632 34.829 17.069 53.173a3.002 3.002 0 0 1-1.836 2.837c-56.09 23.588-130.374 43.944-209.168 57.319a3.091 3.091 0 0 1-.505.042zM559.109 28.506c-18.929 0-39.622 3.604-61.559 11-79.531 26.814-119.049 81.729-106.247 147.271 76.403-13.151 148.313-32.855 203.083-55.649-.889-19.157-7.878-37.413-21.328-55.746a3 3 0 0 1 3.426-4.6c28.973 10.324 47.949 23.95 57.887 41.596 9.748-5.189 18.714-10.521 26.718-15.888-16.477-44.261-53.417-67.982-101.98-67.982z" fill="#0b122d"/><path d="M525.6 280.677c-20.854 0-41.082-11.106-51.73-30.678-7.504-13.791-9.188-29.679-4.742-44.736 4.446-15.059 14.49-27.483 28.281-34.986 13.791-7.505 29.679-9.188 44.737-4.743 15.058 4.446 27.483 14.49 34.987 28.281 15.49 28.469 4.931 64.233-23.539 79.724a58.422 58.422 0 0 1-27.994 7.139zm-.171-111.573c-8.695 0-17.302 2.171-25.153 6.442-12.384 6.738-21.402 17.895-25.394 31.416s-2.48 27.786 4.258 40.17c13.909 25.563 46.022 35.045 71.586 21.137 25.563-13.91 35.045-46.023 21.136-71.587-6.738-12.383-17.895-21.401-31.416-25.394a52.991 52.991 0 0 0-15.017-2.185zm122.823 70.4a59.03 59.03 0 0 1-16.725-2.433c-15.058-4.446-27.483-14.49-34.987-28.281-15.49-28.469-4.931-64.233 23.539-79.724s64.234-4.932 79.724 23.539c7.504 13.791 9.188 29.679 4.742 44.736-4.446 15.059-14.49 27.483-28.281 34.986-8.743 4.758-18.329 7.176-28.012 7.176zm-.169-111.577a52.462 52.462 0 0 0-25.136 6.409c-25.563 13.91-35.045 46.023-21.136 71.587 6.738 12.383 17.895 21.401 31.416 25.394 13.521 3.991 27.787 2.479 40.17-4.258 12.384-6.738 21.402-17.895 25.394-31.416s2.48-27.786-4.258-40.17c-9.561-17.571-27.726-27.546-46.45-27.546z" fill="#0b122d"/><path d="M578.189 206.596a3 3 0 0 1-.934-5.851l16.967-5.558a3 3 0 0 1 1.868 5.701l-16.967 5.558c-.31.102-.625.15-.934.15zm-217.146 54.11a3 3 0 0 1-.504-5.957l111.231-19.104a3.001 3.001 0 0 1 1.015 5.914l-111.231 19.104a3.074 3.074 0 0 1-.511.043z" fill="#0b122d"/><path d="M893.882 976.574a147.21 147.21 0 0 1-53.528-10.044c-86.549-33.714-125.066-137.689-162.315-238.241-12.139-32.77-23.605-63.721-35.514-88.78-11.98-25.212-19.768-34.236-22.217-36.694-38.645-18.108-56.435-63.662-39.768-103.375 17.098-40.74 63.985-59.906 104.726-42.809 74.317 31.189 107.586 120.998 142.809 216.078 13.625 36.78 27.714 74.813 42.656 104.147 12.418 24.379 21.303 34.633 25.581 38.626.875-.368 1.921-.85 3.145-1.476 39.329-20.13 87.533-4.568 107.665 34.761 20.132 39.33 4.569 87.533-34.761 107.665-29.147 14.92-55.654 20.143-78.478 20.143z" fill="#f09c9a"/><path d="M893.882 979.573c-18.784 0-37.16-3.448-54.617-10.249-87.805-34.202-126.56-138.82-164.039-239.993-12.115-32.704-23.558-63.594-35.411-88.535-11.33-23.844-18.795-32.884-21.28-35.502-40.074-19.098-57.979-65.989-40.761-107.017 17.71-42.2 66.452-62.123 108.653-44.414 75.518 31.693 109.006 122.094 144.46 217.802 13.595 36.697 27.652 74.645 42.517 103.828 10.981 21.558 19.063 31.788 23.544 36.407.372-.179.752-.367 1.141-.566 40.74-20.853 90.849-4.673 111.702 36.064 20.854 40.74 4.675 90.85-36.064 111.703-26.539 13.584-53.402 20.472-79.845 20.472zM654.41 453.397c-30.101 0-58.745 17.755-71.104 47.203-16.04 38.22.772 81.924 38.275 99.497.317.148.605.352.853.6 2.857 2.868 10.798 12.266 22.801 37.523 11.967 25.183 23.455 56.194 35.617 89.026 37.02 99.931 75.298 203.264 160.591 236.488 16.76 6.528 34.403 9.839 52.439 9.839 25.483 0 51.427-6.666 77.111-19.813 37.794-19.346 52.803-65.833 33.458-103.627-19.346-37.793-65.833-52.8-103.628-33.457a49.707 49.707 0 0 1-3.348 1.57 3.005 3.005 0 0 1-3.211-.572c-4.35-4.061-13.538-14.587-26.207-39.458-15.023-29.494-29.142-67.608-42.796-104.467-34.99-94.452-68.039-183.667-141.157-214.353a76.576 76.576 0 0 0-29.695-6z" fill="#0b122d"/><path d="M900.649 1033.426c-147.544-.041-191.266-154.724-239.566-274.242-13.694-31.574-28.619-68.773-44.589-91.417-53.771-28.945-107.092-87.238-82.974-144.709 25.647-61.11 95.979-89.859 157.087-64.214 43.487 18.25 79.739 52.961 110.826 106.115 19.521 33.379 35.571 71.036 51.093 107.453 16.471 37.832 32.882 79.397 54.445 108.341 124.619-26.723 197.435 106.053 141.3 186.321-23.745 33.953-77.485 66.01-147.623 66.352z" fill="#fdf151"/><path d="M900.664 1036.426h-.016c-134.816-.038-184.256-127.188-227.875-239.371-4.958-12.75-9.64-24.793-14.471-36.747-1.882-4.337-3.817-8.853-5.776-13.423-12.131-28.311-24.671-57.576-38.082-76.815-57.352-31.109-107.856-90.589-83.69-148.173 26.246-62.538 98.477-92.064 161.014-65.819 44.108 18.511 80.827 53.631 112.255 107.366 19.615 33.541 35.703 71.284 51.261 107.785 2.235 5.134 4.476 10.353 6.729 15.599 13.938 32.458 28.34 65.998 46.232 90.595 29.596-6.002 57.436-3.561 82.782 7.264 23.183 9.899 42.98 26.502 57.254 48.011 13.644 20.561 21.296 44.029 22.13 67.867.873 24.978-5.932 48.57-19.68 68.229-21.657 30.968-73.954 67.262-150.067 67.633zM644.328 452.494c-45.737 0-89.262 26.979-108.041 71.725-22.807 54.344 26.327 111.137 81.629 140.906.409.221.762.533 1.03.912 13.925 19.744 26.721 49.605 39.095 78.484 1.955 4.563 3.887 9.07 5.794 13.469 4.875 12.06 9.564 24.121 14.529 36.891 21.993 56.563 44.735 115.052 78.708 160.059 38.328 50.778 85.293 75.47 143.578 75.486 73.812-.364 124.329-35.28 145.164-65.072 25.964-37.126 24.97-87.895-2.532-129.34-29.618-44.633-80.339-64.193-135.681-52.328a3.003 3.003 0 0 1-3.035-1.142c-18.842-25.292-33.698-59.89-48.066-93.35-2.249-5.236-4.486-10.445-6.724-15.586-15.497-36.356-31.508-73.923-50.933-107.136-30.747-52.572-66.531-86.873-109.396-104.862-14.741-6.187-30.052-9.116-45.12-9.116z" fill="#0b122d"/><path d="M858.558 722.349c-3.042-34.289 210.626-75.974 226.605-14.163s-221.895 67.261-226.605 14.163z" fill="#0b122d"/><path d="M964.882 761.668c-32.193 0-62.417-4.427-82.186-12.329-17.031-6.808-26.157-15.8-27.126-26.726-.783-8.827 8.557-17.557 27.761-25.946 16.66-7.279 39.393-13.625 64.012-17.869 32.756-5.648 64.226-6.866 88.612-3.433 29.751 4.189 47.772 15.278 52.112 32.069 2.604 10.07-.77 19.574-9.756 27.483-15.842 13.943-49.257 23.449-91.676 26.078-7.285.452-14.57.672-21.754.672zm-103.336-39.584c.938 10.573 13.23 17.628 23.377 21.684 23.407 9.357 62.235 13.661 101.341 11.24 40.511-2.511 73.439-11.705 88.083-24.594 7.38-6.496 9.968-13.521 7.912-21.478-4.655-18.006-28.205-24.964-47.14-27.63-23.787-3.352-54.598-2.141-86.756 3.403-54.833 9.454-87.757 26.761-86.816 37.374z" fill="#0b122d"/><path d="M874.276 819.039c8.646-3.84 9.714-22.01 5.712-47.008-13.278-92.745-108.203-250.165-203.65-259.566-104.433-15.691-86.418-168.252 19.077-158.861 83.16 9.984 143.994 66.031 217.018 148.674 82.755 95.539 157.273 236.54 119.386 360.219" fill="#f09c9a"/><path d="M1031.819 865.497a3 3 0 0 1-2.87-3.88c46.247-150.966-79.227-311.707-118.785-357.376-76.265-86.311-135.921-138.151-215.107-147.658-52.231-4.644-80.652 31.66-84.921 67.366-4.27 35.721 14.746 77.713 66.573 85.538 43.927 4.364 91.765 39.789 134.706 99.761 36.672 51.216 64.754 114.945 71.542 162.358 4.646 29.013 2.137 45.911-7.463 50.175a3 3 0 1 1-2.435-5.484c6.417-2.85 7.901-19.221 3.967-43.791-13.61-95.063-109.058-248.001-200.981-257.056a2.523 2.523 0 0 1-.152-.019c-55.84-8.39-76.318-53.672-71.713-92.195 4.601-38.489 35.187-77.624 91.502-72.62 40.075 4.81 76.214 19.951 113.823 47.662 37.972 27.978 74.476 67.269 105.176 102.013 32.606 37.643 77.354 97.75 105.483 170.461 27.229 70.385 32.116 135.192 14.523 192.623a3.003 3.003 0 0 1-2.868 2.122z" fill="#0b122d"/><path d="M722.982 659.941c7.474 93.883-16.25 225.277-27.037 328.502-43.786 56.146-338.9 89.436-467.125 18.952 0 0-104.343-482.666-56.996-521.34 69.195-56.52 167.799-63.903 201.632-66.446 14.765 38.148 67.513 93.796 122.343 87.65 58.01-6.502 71.136-50.322 71.136-78.054 23.686 2.136 122.751 22.027 145.663 41.25" fill="#fdf151"/><path d="M437.756 1050.346c-30.829 0-60.725-1.778-88.389-5.306-50.358-6.42-91.402-18.201-121.992-35.017a3 3 0 0 1-1.487-1.995c-.261-1.207-26.333-122.181-46.283-246.325-11.725-72.963-19.074-132.746-21.844-177.689-3.567-57.879.413-90.683 12.166-100.282 69.889-57.087 170.265-64.631 203.25-67.11 1.311-.101 2.602.672 3.079 1.904 15.353 39.666 68.114 91.473 119.211 85.752 63.532-7.121 68.47-59.262 68.47-75.072a3 3 0 0 1 3.269-2.988c22.575 2.036 123.427 21.894 147.321 41.94a3 3 0 1 1-3.857 4.596c-20.737-17.397-110.956-36.715-140.796-40.223-.404 11.036-3.021 29.078-14.285 45.369-12.769 18.469-32.773 29.35-59.455 32.341-32.257 3.616-60.454-13.162-78.43-27.874-20.233-16.56-37.758-39.207-46.213-59.601-34.623 2.625-130.813 10.921-197.768 65.612-10.552 8.619-23.049 55.466 11.807 272.373 18.792 116.942 43.023 231.064 45.935 244.668 56.616 30.563 154.523 44.385 262.378 36.993 96.355-6.604 177.927-29.228 199.211-55.157 2.808-26.731 6.413-54.878 10.228-84.659 10.918-85.23 22.208-173.362 16.709-242.417a3 3 0 0 1 2.752-3.229c1.648-.146 3.098 1.101 3.229 2.752 5.547 69.676-5.783 158.122-16.739 243.656-3.852 30.07-7.491 58.474-10.304 85.396a3 3 0 0 1-.618 1.533c-21.745 27.883-103.75 51.236-204.059 58.111a828.566 828.566 0 0 1-56.497 1.947zm258.19-61.903h.01z" fill="#0b122d"/><path d="M503.189 457.278c34.542-14.766 43.762-42.185 50.891-52.295 3.949-5.599 23.019 19.087 24.109 25.55 1.091 6.463-16.66 76.726-16.66 76.726l-58.341-49.982z" fill="#bfdbfb"/><path d="M561.53 510.259a2.994 2.994 0 0 1-1.952-.722l-58.341-49.981a3 3 0 0 1 .772-5.037c27.026-11.553 37.838-30.81 44.994-43.552 1.706-3.038 3.179-5.662 4.625-7.713 1.224-1.735 3.213-2.44 5.458-1.929 8.193 1.862 23.025 22.571 24.061 28.709 1.138 6.743-13.72 66.124-16.709 77.959a3 3 0 0 1-2.908 2.266zm-52.822-52.203 51.094 43.772c8.051-32.172 15.926-66.739 15.427-70.814-.892-5.283-14.647-22.233-19.078-23.747-1.168 1.744-2.452 4.03-3.916 6.638-6.728 11.981-17.751 31.617-43.527 44.151z" fill="#0b122d"/><path d="M401.897 391.88c-11.956 0-51.98 23.212-51.896 30.321.117 9.87 80.984 99.793 80.984 99.793s65.868-48.445 72.204-64.717c-41.949-9.655-101.293-65.398-101.293-65.398z" fill="#bfdbfb"/><path d="M430.986 524.994a2.995 2.995 0 0 1-2.232-.994c-.203-.225-20.475-22.781-40.5-46.254-41.167-48.255-41.226-53.154-41.254-55.509-.023-1.998 1.161-4.139 3.728-6.736 9.997-10.115 40.197-26.621 51.168-26.621.763 0 1.498.291 2.054.813.588.552 59.241 55.299 99.912 64.66a3.002 3.002 0 0 1 2.123 4.013c-6.466 16.604-66.408 61.033-73.222 66.045a2.989 2.989 0 0 1-1.776.583zm-77.973-102.751c1.276 6.863 40.913 53.958 78.381 95.717 18.093-13.448 57.825-44.54 67.335-58.735-39.38-11.2-90.112-57.049-97.935-64.272-5.208.618-15.94 5.171-26.95 11.494-13.234 7.6-20.174 13.846-20.831 15.797z" fill="#0b122d"/><path d="M752.142 368.682c-33.738-22.04-51.335-45.638-60.885-63.105-11.75-21.49-43.084 13.945-30.279 46.623 9.061 23.123 21.199 39.045 26.194 50.495-8.492 25.121 32.754 54.242 60.676 41.027" fill="#f09c9a"/><path d="M732.612 450.029c-13.57 0-27.07-6.369-35.949-14.272-11.075-9.859-15.755-22.055-12.692-32.867-1.845-3.99-4.563-8.621-7.672-13.917-5.538-9.434-12.429-21.173-18.113-35.679-9.517-24.285 3.91-49.616 16.967-55.714 7.558-3.532 14.562-1.078 18.737 6.557 12.928 23.646 33.079 44.517 59.894 62.033a3 3 0 0 1-3.281 5.023c-27.651-18.063-48.47-39.655-61.877-64.178-2.631-4.813-6.309-6.159-10.933-4-11.153 5.209-21.912 27.696-13.92 48.089 5.512 14.065 12.271 25.579 17.702 34.83 3.471 5.913 6.468 11.02 8.449 15.561a3 3 0 0 1 .092 2.16c-2.953 8.735 1.024 19.061 10.639 27.619 11.115 9.895 30.223 17.161 45.912 9.735a3 3 0 1 1 2.567 5.424c-5.304 2.511-10.917 3.596-16.519 3.596z" fill="#0b122d"/><path d="M858.404 699.287c-35.999-85.376-108.879-179.613-182.066-186.821-104.433-15.691-86.418-168.252 19.077-158.861 83.16 9.984 143.994 66.031 217.018 148.674 47.593 54.946 92.462 124.928 114.792 198.004" fill="#f09c9a"/><path d="M1027.224 703.283a3.001 3.001 0 0 1-2.868-2.124c-19.815-64.847-60.369-134.78-114.19-196.918-76.265-86.311-135.921-138.151-215.107-147.658-52.236-4.646-80.653 31.66-84.921 67.366-4.27 35.721 14.745 77.713 66.573 85.538 75.234 7.475 148.354 103.006 184.459 188.633a3.001 3.001 0 0 1-5.529 2.332c-18.772-44.519-46.671-88.939-76.545-121.873-34.523-38.06-70.157-59.889-103.05-63.129a2.523 2.523 0 0 1-.152-.019c-55.84-8.39-76.318-53.672-71.713-92.195 4.601-38.489 35.187-77.624 91.502-72.62 40.075 4.81 76.214 19.951 113.823 47.662 37.972 27.978 74.476 67.269 105.176 102.013 54.378 62.778 95.358 133.484 115.413 199.114a3 3 0 0 1-2.87 3.878z" fill="#0b122d"/><path d="M692.152 353.285c-56.947-3.76-118.692 23.844-141.617 48.716-22.153 24.033 8.258 46.168 39.402 34.354s43.905-16.706 59.624-19.791" fill="#f09c9a"/><path d="M572.413 442.62c-12.28 0-23.314-4.599-28.973-12.971-6.041-8.938-4.259-19.757 4.889-29.682 24.835-26.942 88.624-53.331 144.021-49.676 1.653.108 2.905 1.537 2.796 3.19s-1.529 2.921-3.191 2.796c-58.548-3.857-118.47 25.251-139.214 47.756-7.207 7.819-8.745 15.723-4.33 22.256 5.978 8.845 22.748 13.978 40.461 7.261l1.593-.604c30.285-11.489 42.819-16.245 58.517-19.326a2.999 2.999 0 1 1 1.155 5.887c-15.199 2.983-27.595 7.687-57.544 19.048l-1.594.604c-6.167 2.34-12.529 3.46-18.588 3.46z" fill="#0b122d"/><path d="M665.39 402.695c-28.483 2.297-71.289 22.774-74.465 49.941s22.9 63.001 44.242 68.169c37.712 9.13 37.315-36.415 14.291-46.736" fill="#f09c9a"/><path d="M644.396 524.987c-3.097 0-6.421-.416-9.934-1.267-22.313-5.402-49.91-42.404-46.516-71.433 3.389-28.995 47.25-50.168 77.204-52.583a3 3 0 1 1 .482 5.98c-27.248 2.197-68.736 21.716-71.727 47.3-3.004 25.703 22.062 60.084 41.969 64.903 12.893 3.123 22.136-.493 25.359-9.918 3.546-10.37-1.26-25.901-13.001-31.165a3 3 0 1 1 2.454-5.475c15.032 6.738 20.615 25.741 16.224 38.581-3.346 9.783-11.477 15.074-22.514 15.075z" fill="#0b122d"/><path d="M667.385 448.856c-23.213 0-63.045 14.924-66.083 42.107-3.636 32.53 24.252 60.515 55.699 55.354 28.496-4.676 31.959-31.651 19.34-33.853" fill="#f09c9a"/><path d="M649.497 549.93c-12.71 0-25.024-4.946-34.689-14.127-12.191-11.58-18.354-28.468-16.487-45.174 3.332-29.812 46.074-44.773 69.065-44.773a3 3 0 1 1 0 6c-20.483 0-60.208 13.546-63.102 39.439-1.685 15.072 3.658 29.71 14.657 40.158 10.307 9.792 24.002 14.128 37.575 11.903 17.387-2.854 23.75-14.212 23.785-21.149.007-1.408-.294-6.06-4.474-6.789a3 3 0 1 1 1.031-5.91c5.771 1.007 9.477 6.004 9.443 12.729-.056 11.097-9.971 23.947-28.813 27.039a49.281 49.281 0 0 1-7.99.653z" fill="#0b122d"/><path d="M676.345 515.463a2.98 2.98 0 0 1-.44-.032c-.845-.124-20.824-3.118-31.834-9.724a3 3 0 1 1 3.087-5.144c9.992 5.995 29.424 8.903 29.619 8.933a2.999 2.999 0 0 1-.432 5.967zM279.313 717.567c-17.576 74.354-12.417 118.727 7.036 157.383 0 0-65.88 19.651-60.722-56.192 5.159-75.843 53.685-101.191 53.685-101.191z" fill="#0b122d"/><path d="M268.759 880.27c-9.294 0-20.502-1.941-29.679-9.278-12.594-10.068-18.127-27.71-16.446-52.437 2.718-39.96 17.508-65.951 29.437-80.719 13.019-16.117 25.335-22.658 25.853-22.929a3 3 0 0 1 4.308 3.35c-16.203 68.548-14.234 113.554 6.796 155.345a2.999 2.999 0 0 1-1.822 4.224c-.611.182-8.414 2.444-18.447 2.444zm5.963-156.104c-4.606 3.408-11.327 9.147-18.188 17.693-11.299 14.072-25.314 38.872-27.914 77.102-1.539 22.631 3.232 38.554 14.182 47.325 12.962 10.384 31.543 8.13 39.196 6.605-9.546-19.984-14.661-40.128-16.047-63.065-1.473-24.371 1.398-52.457 8.771-85.66zm-25.547 375.601c34.464 11.605 91.754-179.563 61.148-207.655-29.771-27.326-114.699 189.623-61.148 207.655z" fill="#0b122d"/><path d="M252.339 1103.293c-1.395 0-2.769-.228-4.122-.684-11.574-3.896-18.03-15.711-19.187-35.113-1.558-26.137 6.869-65.615 22.542-105.605 11.976-30.557 30.513-65.937 46.625-73.598 6.751-3.21 11.423-.897 14.154 1.608 15.416 14.149 9.11 59.028 3.979 84.521-7.797 38.743-22.186 79.602-36.656 104.091-9.733 16.472-18.908 24.78-27.335 24.78zm-2.207-6.369c6.199 2.087 15.084-5.737 24.376-21.464 14.157-23.959 28.265-64.083 35.94-102.222 8.185-40.665 7.379-70.167-2.155-78.917-1.398-1.284-3.518-2.515-7.52-.609-25.481 12.117-69.069 117.824-65.754 173.428.997 16.723 6.081 26.743 15.112 29.784z" fill="#0b122d"/><path d="M247.623 653.577c-36.02 70.531-43.357 185.108-6.11 233.407 78.806 69.733 308.913-17.481 408.118 21.057 100.009 31.914 55.209 181.842-46.141 153.195-64.385-11.376-182.963 14.157-260.297 13.284-84.651-.955-173.587-20.461-226.124-86.966-103.23-136.37-76.376-378.143 50.615-489.659" fill="#f09c9a"/><path d="M347.073 1077.54c-1.318 0-2.62-.007-3.914-.021-106.348-1.2-183.208-30.843-228.444-88.106-49.522-65.419-71.981-158.828-61.655-256.324 10.281-97.066 51.338-183.612 112.645-237.447a3 3 0 1 1 3.959 4.507C43.008 611.37 18.142 851.898 119.461 985.743c44.021 55.723 119.319 84.599 223.766 85.776 31.848.376 71.673-3.885 110.182-7.989 55.292-5.892 112.467-11.988 150.604-5.249.099.018.197.04.294.067 50.212 14.189 84.376-16.905 94.874-51.804 10.514-34.956-.792-79.797-50.46-95.646a4.451 4.451 0 0 1-.174-.062c-43.215-16.789-110.984-9.41-182.729-1.599-89.164 9.708-181.363 19.746-226.291-20.008a3.04 3.04 0 0 1-.387-.415c-17.996-23.336-26.889-62.513-25.042-110.314 1.75-45.288 12.997-91.318 30.856-126.289a3 3 0 0 1 5.344 2.728c-33.836 66.256-44.039 181.02-6.58 229.984 43.026 37.776 133.728 27.9 221.451 18.349 72.446-7.888 140.882-15.337 185.465 1.937 23.989 7.678 41.615 22.56 50.976 43.04 8.312 18.187 9.49 39.502 3.318 60.022-6.168 20.506-18.898 37.61-35.846 48.162-19.08 11.88-41.987 14.552-66.257 7.729-37.303-6.55-93.971-.508-148.777 5.333-37.127 3.957-75.473 8.044-106.972 8.044z" fill="#0b122d"/><path d="M311.361 679.756c-43.3 43.302-82.427 111.49-74.833 157.122 24.302 5.613 23.878 30.273 17.369 40.294-47.658 47.619-80.813 132.639-54.026 206.097-13.79 0-42.553 4.599-75.932-8.556-67.758-26.705-100.003-80.222-116.395-179.885C-3.921 825.12 6.476 745.41 36.822 670.382c31.13-76.967 72.936-134.213 135.002-184.327" fill="#fdf151"/><path d="M176.188 1087.037c-14.547 0-33.236-1.607-53.348-9.534-67.057-26.428-101.317-79.211-118.255-182.188-11.554-70.245-1.092-150.527 29.458-226.059 31.487-77.852 73.4-135.073 135.898-185.535a3 3 0 1 1 3.77 4.668C112.049 538.176 70.69 594.652 39.605 671.506 9.462 746.029-.873 825.167 10.505 894.34c16.545 100.592 49.729 152.04 114.535 177.581 26.881 10.595 50.44 9.431 66.031 8.658 1.643-.081 3.178-.156 4.609-.213-11.31-33.803-11.182-71.975.414-110.696 10.709-35.762 30.395-69.267 55.448-94.386 3.042-4.916 4.544-14.179 1.383-22.006-2.779-6.88-8.682-11.541-17.071-13.479a2.998 2.998 0 0 1-2.284-2.431c-7.874-47.313 32.107-116.169 75.67-159.734a3 3 0 1 1 4.243 4.242c-21.914 21.915-42.305 49.951-55.946 76.92-14.772 29.207-21.09 55.312-18.338 75.671 11.705 3.339 16.946 10.765 19.288 16.563 4.206 10.414 1.874 21.697-2.074 27.774a2.984 2.984 0 0 1-.395.487c-46.378 46.341-79.589 130.932-53.328 202.948a3 3 0 0 1-2.818 4.027c-2.362 0-5.209.141-8.505.304-4.294.212-9.413.465-15.179.465z" fill="#0b122d"/><path d="m265.898 860.31 44.425 31.802c-33.881 3.382-84.603 166.876-61.148 207.655l-72.595-10.596c-32.234-87.287 29.036-228.861 89.318-228.861z" fill="#bfdbfb"/><path d="M249.175 1102.767c-.144 0-.289-.011-.434-.031l-72.595-10.596a3.001 3.001 0 0 1-2.381-1.93c-13.008-35.224-9.719-73.756-4.669-99.878 6.523-33.744 20.144-67.277 37.369-92.001 18.431-26.453 39.538-41.021 59.434-41.021.626 0 1.237.196 1.746.561l44.425 31.802a3 3 0 0 1-1.449 5.425c-7.544.753-17.673 12.477-27.791 32.166-26.917 52.381-46.935 143.398-31.054 171.008a3 3 0 0 1-2.6 4.496zm-70.383-16.305 65.338 9.536c-13.492-36.129 9.435-124.913 33.363-171.478 9.193-17.89 18-29.084 26.269-33.416l-38.809-27.782c-17.612.471-36.593 14.079-53.565 38.438-32.078 46.041-52.811 127.324-32.596 184.701z" fill="#0b122d"/><path d="M630.304 902.362c49.06 8.536 84.301 29.049 94.977 54.189 8.718 20.53-12.737 54.412-29.962 45.459-17.224-8.952-26.204-14.12-36.505-29.273" fill="#f09c9a"/><path d="M701.247 1006.477c-2.521 0-4.984-.596-7.311-1.805-17.314-8.999-26.851-14.432-37.603-30.248a3 3 0 1 1 4.961-3.373c9.959 14.65 18.52 19.52 35.408 28.297 6.13 3.185 12.178-1.088 15.238-3.919 9.219-8.529 15.67-25.715 10.579-37.705-10.414-24.523-45.08-44.115-92.73-52.406a3 3 0 0 1 1.029-5.912c49.666 8.643 86.011 29.567 97.224 55.973 6.276 14.78-1.356 34.584-12.027 44.455-4.74 4.386-9.862 6.644-14.769 6.644z" fill="#0b122d"/><path d="M653.706 960.113c24.425 7.268 57.751 27.381 57.33 52.791-.375 22.588-24.2 35.746-36.827 34.31-13.392-1.523-47.018-32.382-47.018-32.382" fill="#f09c9a"/><path d="M676.186 1050.321a20.34 20.34 0 0 1-2.316-.127c-13.959-1.588-45.192-29.927-48.708-33.153a3 3 0 1 1 4.057-4.42c9.155 8.399 35.144 30.453 45.329 31.612 5.265.599 14.545-1.937 22.495-8.916 4.917-4.317 10.815-11.719 10.994-22.463.402-24.245-33.636-43.454-55.186-49.867a3 3 0 1 1 1.711-5.75c24.159 7.188 59.934 27.96 59.474 55.717-.167 10.096-4.796 19.64-13.034 26.872-7.364 6.465-17.027 10.495-24.815 10.495z" fill="#0b122d"/><path d="M627.038 1003.133c21.418 7.653 56.149 24.739 49.93 54.332-6.298 29.966-36.416 35.097-58.526 26.318-16.795-6.669-15.826-18.274-7.231-20.461" fill="#f09c9a"/><path d="M638.386 1090.619c-7.004 0-14.241-1.344-21.051-4.048-9.917-3.938-15.583-10.236-15.156-16.849.291-4.514 3.469-8.081 8.292-9.308a3 3 0 1 1 1.48 5.814c-2.25.572-3.665 2.022-3.784 3.88-.185 2.863 2.686 7.433 11.382 10.886 12.917 5.13 27.444 4.821 37.914-.801 8.601-4.619 14.33-12.692 16.569-23.347 5.739-27.306-27.612-43.604-48.003-50.89a3 3 0 0 1 2.018-5.65c22.232 7.943 58.531 26.012 51.856 57.774-2.615 12.441-9.393 21.915-19.603 27.398-6.363 3.417-13.989 5.139-21.915 5.139z" fill="#0b122d"/><path d="M603.491 1061.235c14.811 2.998 19.092 5.633 28.182 8.549" fill="#f09c9a"/><path d="M631.673 1072.784c-.303 0-.612-.047-.917-.145-2.772-.889-5.112-1.754-7.376-2.592-5.305-1.962-10.315-3.814-20.485-5.873a3 3 0 0 1-2.345-3.535 2.997 2.997 0 0 1 3.536-2.346c10.625 2.15 16.09 4.172 21.376 6.127 2.203.814 4.481 1.657 7.127 2.506a2.999 2.999 0 0 1-.915 5.857zM193.234 851.939a2.998 2.998 0 0 1-1.776-5.419c.926-.678 22.935-16.558 45.586-12.597a3 3 0 0 1-1.032 5.91c-20.1-3.517-40.806 11.378-41.013 11.53a2.985 2.985 0 0 1-1.766.576z" fill="#0b122d"/><path d="M843.892 844.565c-9.584-20.002 4.361-41.877 19.151-51.986 1.977-3.509 3.225-10.759 1.321-22.107 43.123 51.879 141.241 47.987 214.476 12.278 13.178 28.004 22.214 95.63-4.844 155.721-23.56 52.321-78.016 94.955-173.346 94.955" fill="#fdf151"/><path d="M900.649 1036.426a3 3 0 1 1 0-6c111.935 0 154.939-58.385 170.611-93.188 25.163-55.88 18.898-120.222 6.097-150.45-34.9 16.49-75.038 25.74-111.479 25.742-1.896 0-3.774-.025-5.649-.075-39.315-1.055-70.869-12.52-91.938-33.283.272 8.16-1.396 12.682-2.634 14.879-.226.4-.541.744-.921 1.004-12.011 8.21-27.557 28.56-18.138 48.214a3 3 0 0 1-5.411 2.594c-9.719-20.283 2.728-43.475 19.528-55.319.943-2.054 2.673-7.761.691-19.576a3 3 0 0 1 5.265-2.414c24.867 29.917 64.69 37.125 93.719 37.904 37.93 1.021 80.633-8.606 117.135-26.404a3.004 3.004 0 0 1 2.312-.134 3.005 3.005 0 0 1 1.718 1.553c14.095 29.953 21.917 98.847-4.823 158.229-16.267 36.124-60.772 96.725-176.082 96.725z" fill="#0b122d"/><path d="M1085.163 708.186c.171 1.17 12.405 67.114 12.405 67.114-11.9 55.522-193.492 56.342-238.2 11.03 0 0-1.426-64.64-.81-63.981 45.862 49.083 211.356 42.246 226.605-14.163z" fill="#bfdbfb"/><path d="M981.388 821.757c-12.125 0-24.444-.656-36.556-1.997-40.447-4.477-72.376-15.894-87.599-31.322a3.001 3.001 0 0 1-.864-2.041c-.004-.16-.355-16.127-.631-31.918a2544.98 2544.98 0 0 1-.31-22.012 447.125 447.125 0 0 1-.015-7.334c.032-3.276.047-4.771 2-5.567a3.02 3.02 0 0 1 3.336.735c29.719 31.808 111.13 38.877 165.606 25.329 31.508-7.836 51.364-21.411 55.91-38.228.371-1.373 1.665-2.271 3.074-2.212a3.001 3.001 0 0 1 2.788 2.545c.231 1.436 8.203 44.455 12.389 67.017.072.389.066.788-.016 1.176-3.444 16.069-19.886 28.827-47.548 36.896-20.112 5.865-45.371 8.934-71.565 8.934zm-119.047-36.708c14.61 14.051 44.796 24.502 83.151 28.747 37.535 4.154 77.08 1.638 105.781-6.733 17.528-5.112 39.152-14.77 43.232-31.824-1.261-6.796-7.419-39.998-10.521-56.823-8.79 14.556-28.263 26.095-56.18 33.037-28.72 7.143-63.504 8.725-95.435 4.343-30.853-4.234-55.692-13.592-70.968-26.604.053 11.795.532 37.285.938 55.858z" fill="#0b122d"/></svg></g><g transform="translate(1568.181818181818 158.18181818181816) rotate(0.0 437.0454545454545 651.1363636363635) scale(1.363651255303738 1.3643649773939246)"><svg width="640.993" height="954.49" viewBox="0 0 640.993 954.49"><rect fill="#bedafa" height="883.437" rx="50" width="634.993" x="3" y="68.053"/><path d="M587.993 954.49H53c-29.224 0-53-23.776-53-53V118.053c0-29.225 23.776-53 53-53h534.993c29.224 0 53 23.775 53 53V901.49c0 29.225-23.776 53-53 53zM53 71.053c-25.916 0-47 21.084-47 47V901.49c0 25.916 21.084 47 47 47h534.993c25.916 0 47-21.084 47-47V118.053c0-25.916-21.084-47-47-47z" fill="#0b122d"/><path d="M61.993 114.473H579v388.492H61.993z" fill="#fff"/><path d="M579 505.965H61.993a3 3 0 0 1-3-3V114.473a3 3 0 0 1 3-3H579a3 3 0 0 1 3 3v388.492a3 3 0 0 1-3 3zm-514.007-6H576V117.473H64.993z" fill="#0b122d"/><path d="M463.009 426.445c-10.566-11.201-38.188-20.217-76.757-23.613l-119.799-3.379s-70.147-1.307-98.016 16.639c-14.607 9.406-19.422 42.859-18.627 86.875h339.252c-12.332-41.63-22.414-72.663-26.053-76.521z" fill="#fff"/><path d="M489.062 505.965H149.81a3.001 3.001 0 0 1-3-2.946c-.919-50.932 5.624-80.191 20.003-89.451 28.311-18.23 96.796-17.173 99.695-17.115l119.828 3.38c.06.002.119.005.179.011 38.483 3.388 67.159 12.333 78.676 24.543 1.484 1.573 5.427 5.753 26.748 77.727a3.003 3.003 0 0 1-2.877 3.852zm-336.297-6h332.278c-17.942-60.283-22.906-70.074-24.215-71.462-10.359-10.982-38.298-19.457-74.75-22.676l-119.709-3.377c-.667-.02-69.528-1.081-96.307 16.162-8.325 5.361-18.004 23.872-17.297 81.353z" fill="#0b122d"/><path d="M383.956 411.762c-22.303 26.913-94.459 28.251-118.573-5.206l3.942-89.775 118.573 5.206z" fill="#c66a52"/><path d="M327.666 434.822c-1.307 0-2.619-.022-3.938-.066-26.774-.903-49.496-10.79-60.779-26.445a2.994 2.994 0 0 1-.563-1.886l3.942-89.774c.073-1.655 1.486-2.954 3.128-2.865l118.574 5.206a3 3 0 0 1 2.865 3.129l-3.941 89.774a3 3 0 0 1-.687 1.782c-10.794 13.025-33.507 21.146-58.601 21.146zm-59.239-29.197c10.416 13.683 31.06 22.309 55.504 23.133 24.344.818 46.574-6.284 57.074-18.161l3.764-85.744-112.579-4.942-3.764 85.715zm115.529 6.137h.01z" fill="#0b122d"/><path d="M61.851 462.853v40.113h213.63c-11.721-42.588-19.42-84.932-11.863-118.467-83.999 19.272-170.725 32.816-201.767 78.354z" fill="#5c79f7"/><path d="M275.481 505.965H61.851a3 3 0 0 1-3-3v-40.112a3 3 0 0 1 .521-1.689c27.83-40.826 97.89-56.239 172.063-72.558 10.333-2.272 21.018-4.624 31.513-7.031a3.002 3.002 0 0 1 3.598 3.583c-8.223 36.485 2.812 84.254 11.829 117.012a3 3 0 0 1-2.892 3.796zm-210.63-6h206.704c-13.192-48.971-16.893-83.777-11.806-111.507-9.045 2.052-18.164 4.059-27.025 6.008-72.505 15.951-141.013 31.021-167.873 69.323z" fill="#0b122d"/><path d="M578.858 469.511c-44.405-61.353-112.184-64.253-190.126-81.356 25.161 26.465 31.759 69.621 31.977 114.812h158.149v-33.455z" fill="#5c79f7"/><path d="M578.858 505.965H420.709a3 3 0 0 1-3-2.985c-.265-54.853-10.164-90.683-31.151-112.758a3.002 3.002 0 0 1-.439-3.541 3.003 3.003 0 0 1 3.256-1.457c12.64 2.774 25.072 5.185 37.094 7.516 62.75 12.168 116.942 22.677 154.82 75.012.371.512.57 1.127.57 1.759v33.455a3 3 0 0 1-3 3zm-155.173-6h152.173v-29.479c-36.47-49.739-89.351-59.993-150.532-71.856-9.297-1.803-18.84-3.653-28.55-5.685 17.735 23.017 26.346 57.407 26.909 107.02z" fill="#0b122d"/><path d="M493.339 499.38c-2.818-11.271-46.103-44.677-46.103-44.677 8.071-13.948 32.771-26.351 32.771-26.351-29.908-31.129-77.079-45.434-94.683-47.741l-.973 22.166c15.739 33.208 21.933 67.167 24.312 100.188h83.857c.714-1.557 1.022-2.773.819-3.585z" fill="#5c79f7"/><path d="M492.52 505.965h-83.857a3 3 0 0 1-2.992-2.784c-2.808-38.954-10.444-70.449-24.031-99.118a3.002 3.002 0 0 1-.286-1.417l.973-22.166a2.998 2.998 0 0 1 3.387-2.843c14.759 1.935 64.161 15.023 96.456 48.638a3.002 3.002 0 0 1-.817 4.759c-.226.113-21.402 10.854-30.106 22.991 9.547 7.49 42.301 33.825 45.002 44.628.373 1.492.055 3.261-1.002 5.563a3 3 0 0 1-2.727 1.749zm-81.075-6h78.944c-2.165-7.616-28.674-30.296-44.987-42.887a3 3 0 0 1-.764-3.878c6.587-11.384 23.042-21.479 30.399-25.588-27.243-26.45-67.797-40.135-86.864-43.521l-.793 18.077c13.391 28.488 21.065 59.657 24.065 97.797z" fill="#0b122d"/><path d="m189.684 436.005 52.647 34.481s-15.125 16.792-27.916 32.479h65.135c-11.103-42.059-18.808-86.009-12.668-130.569-33.906 2.712-57.855 21.309-77.199 63.608z" fill="#5c79f7"/><path d="M279.551 505.965h-65.135a3 3 0 0 1-2.325-4.896c9.734-11.938 20.926-24.638 25.682-29.982l-49.732-32.573a3 3 0 0 1-1.084-3.758c19.361-42.336 43.938-62.49 79.688-65.35a2.998 2.998 0 0 1 3.211 3.4c-6.554 47.562 3.289 94.134 12.597 129.394a3 3 0 0 1-2.9 3.766zm-58.775-6h54.889c-8.894-34.374-17.736-78.606-12.241-124.214-31.084 3.659-52.24 21.597-69.929 59.164l50.479 33.062a3 3 0 0 1 .586 4.518c-.135.149-12.219 13.58-23.784 27.471zm101.05-121.613c8.044 12.601 37.053 19.794 62.828 17.532l1.047-23.854c-19.766 6.675-35.126 8.556-63.875 6.323z" fill="#0b122d"/><path d="M375.182 399.287c-22.791 0-47.734-6.555-55.885-19.321a3 3 0 0 1-.044-3.157 3.013 3.013 0 0 1 2.806-1.448c27.328 2.123 42.56.621 62.683-6.174a3 3 0 0 1 3.957 2.973l-1.047 23.854a3 3 0 0 1-2.735 2.856c-3.16.277-6.425.416-9.733.416zm-45.768-17.418c10.549 7.72 31.843 12.488 52.359 11.221l.741-16.87c-17.064 5.325-31.313 6.866-53.1 5.649z" fill="#0b122d"/><path d="M319.941 75.397C296.912-39.337 190.917.92 165.841 68.289c-21.438 57.596-7.727 102.12-58.407 101.529 0 0 15.976 30.243 48.376 17.305-22.402 43.768-58.577 72.635-113.718 71.553 0 0 30.554 47.793 79.89 37.893 0 0-6.996 19.514-34.777 25.362 25.586 19.318 122.859 17.187 174.199-46.845 42.425-52.913 69.032-147.4 58.537-199.688z" fill="#ee83f9"/><path d="M133.815 335.566c-20.72 0-38.758-3.946-48.418-11.24a3.001 3.001 0 0 1 1.19-5.33c17.396-3.662 26.053-12.8 29.909-18.534-19.008 2.134-37.833-3.595-54.798-16.757-14.053-10.903-21.81-22.907-22.133-23.413-.596-.933-.63-2.117-.089-3.083s1.559-1.578 2.676-1.532c47.077.883 83.242-20.42 107.517-63.461-29.699 6.967-44.727-20.694-44.887-20.997a3.002 3.002 0 0 1 2.653-4.402h.035c32.616.41 36.418-18.82 42.732-50.632 2.885-14.536 6.154-31.012 12.829-48.943 7.157-19.229 20.803-36.78 38.424-49.422C219.306 5.011 239.204-1.251 257.474.205c19.141 1.518 53.09 13.228 65.409 74.601 5.142 25.621 1.686 62.446-9.483 101.035-11.281 38.977-29.379 75.833-49.654 101.121-30.971 38.626-75.048 51.512-98.566 55.755-10.652 1.922-21.323 2.849-31.364 2.849zm-38.878-12.598c13.354 6.102 38.286 9.416 69.176 3.844 22.692-4.094 65.202-16.501 94.95-53.604 40.821-50.911 68.435-144.914 57.936-197.221-8.555-42.623-29.863-67.412-60-69.802-34.728-2.732-74.361 25.575-88.347 63.149-6.506 17.479-9.726 33.703-12.566 48.018-6.111 30.794-10.613 53.48-43.172 55.346 5.571 7.333 19.363 20.59 41.783 11.638a2.996 2.996 0 0 1 3.33.766 3.003 3.003 0 0 1 .453 3.388c-24.391 47.652-61.532 72.251-110.453 73.188 9.074 11.416 35.726 39.507 73.365 31.95a3.003 3.003 0 0 1 3.415 3.954c-.282.786-6.632 17.775-29.869 25.387z" fill="#0b122d"/><path d="M308.381 376.285c10.079 1.992 19.559 2.842 27.51 3.009 57.773 1.214 93.352-27.043 108.346-54.271 12.929-23.478 17.67-44.214 18.557-80.411 1.878-76.695-15.096-145.385-119.98-147.954s-125.201 65.208-127.079 141.903c-.858 35.048 3.704 64.324 15.176 85.682 8.898 16.564 22.42 27.706 36.506 36.011l-.16 3.652" fill="#c66a52"/><path d="M339.521 382.331c-1.225 0-2.456-.013-3.693-.039-9.166-.192-18.857-1.252-28.028-3.064a3 3 0 1 1 1.163-5.886c8.834 1.746 18.167 2.768 26.991 2.953 70.277 1.431 98.639-39.979 105.655-52.719 12.715-23.09 17.304-43.034 18.186-79.037 1.718-70.184-10.845-142.281-117.055-144.882-106.245-2.605-122.288 68.795-124.007 138.978-.879 35.919 4.106 64.244 14.82 84.188 7.396 13.769 18.972 25.167 35.387 34.847a2.999 2.999 0 0 1 1.473 2.716l-.161 3.652c-.073 1.655-1.466 2.951-3.129 2.865a3 3 0 0 1-2.865-3.129l.082-1.864c-16.57-10.057-28.381-21.928-36.073-36.247-11.212-20.873-16.438-50.203-15.532-87.175 1.145-46.733 9.234-79.249 25.458-102.327 20.956-29.812 55.203-43.706 104.694-42.502 49.493 1.212 83.017 16.774 102.488 47.575 15.074 23.846 21.562 56.718 20.418 103.451-.897 36.635-5.851 58.036-18.928 81.785-8.533 15.494-22.478 29.329-39.266 38.956-19.575 11.225-42.462 16.905-68.077 16.905z" fill="#0b122d"/><path d="M416.747 213.06c-9.793-4.716-19.854-6.621-32.093-8.363-7.847-1.117-8.02-9.978 2.992-14.596 10.35-4.34 30.622.441 37.055 10.045 6.711 10.019.039 16.763-7.954 12.914z" fill="#ee83f9"/><path d="M421.193 217.155c-1.846 0-3.809-.457-5.748-1.391-9.004-4.337-18.264-6.253-31.214-8.097-4.519-.643-7.634-3.428-8.127-7.268-.514-3.996 1.944-9.525 10.382-13.064 11.093-4.651 33.249.008 40.708 11.142 4.69 7.001 3.617 12.659 1.048 15.619-1.75 2.018-4.265 3.059-7.049 3.059zm-3.144-6.797c2.353 1.135 4.576 1.058 5.662-.194 1.064-1.227 1.31-4.149-1.501-8.347-5.796-8.652-24.564-12.655-33.403-8.948-4.969 2.084-6.983 4.968-6.752 6.766.197 1.529 2.179 1.974 3.022 2.094 13.534 1.926 23.268 3.956 32.972 8.63z" fill="#0b122d"/><path d="M311.307 208.652c-10.795 1.275-20.306 5.066-31.569 10.163-7.221 3.268-12.122-4.117-5.306-13.923 6.406-9.216 26.077-16.058 36.659-11.406 11.039 4.854 9.027 14.125.216 15.165z" fill="#ee83f9"/><path d="M276.4 222.599c-2.443 0-4.635-.963-6.184-2.823-2.577-3.097-3.47-9.082 1.752-16.596 6.865-9.878 28.062-17.836 40.33-12.439 7.715 3.392 9.844 8.742 9.265 12.617-.657 4.394-4.544 7.641-9.905 8.273-9.926 1.173-18.767 4.524-30.684 9.917-1.558.705-3.112 1.051-4.575 1.051zm26.453-27.657c-9.589 0-21.652 5.467-25.958 11.662-3.075 4.425-3.227 7.939-2.067 9.333.986 1.184 2.898.496 3.673.145 12.454-5.635 21.756-9.145 32.454-10.409 2.594-.306 4.429-1.562 4.674-3.201.24-1.606-1.121-4.204-5.746-6.238-2.028-.892-4.439-1.291-7.03-1.291z" fill="#0b122d"/><ellipse cx="398.129" cy="231.924" fill="#0b122d" rx="8.422" ry="7.074" transform="matrix(.02448452 -.99970021 .99970021 .02448452 156.527 624.256)"/><ellipse cx="305.005" cy="231.773" fill="#0b122d" rx="8.422" ry="7.074" transform="matrix(.02448452 -.99970021 .99970021 .02448452 65.834 531.012)"/><path d="M341.836 290.586c-8.463 22.906-45.586 13.994-45.275-8.802z" fill="#fff"/><path d="M321.937 306.978c-1.875 0-3.812-.18-5.792-.548-11.011-2.047-22.775-10.645-22.584-24.688a2.997 2.997 0 0 1 3.572-2.904l45.275 8.803a3 3 0 0 1 2.241 3.986c-3.583 9.698-12.186 15.352-22.712 15.352zm-22.034-21.488c1.738 8.416 9.767 13.634 17.338 15.041 6.773 1.263 15.622-.183 20.222-7.738z" fill="#0b122d"/><path d="M219.392 230.325c9.374-20.623 8.845-134.748 108.455-133.663 135.516 1.476 115.792 109.582 130.281 142.839 3.135 7.197 22.727 3.146 24.917-10.761 6.133-38.943.053-114.767-55.179-153.179-71.02-49.392-174.549-39.234-211.245 4.485-35.164 41.895-45.363 99.465-22.707 146.173 14.296 29.472 25.477 4.105 25.477 4.105z" fill="#ee83f9"/><path d="M465.287 246.001c-4.748 0-8.44-1.93-9.91-5.303-3.195-7.335-4.756-17.775-6.563-29.865-6.55-43.816-16.449-110.033-121-111.172-.455-.005-.913-.008-1.363-.008-77.257 0-91.494 72.255-99.165 111.179-1.82 9.233-3.258 16.53-5.156 20.716-.562 1.271-5.463 11.771-13.936 11.925l-.195.002c-6.089 0-11.581-5.219-16.785-15.945-22.76-46.922-13.69-105.569 23.108-149.412 18.493-22.032 53.973-36.322 94.909-38.227 43.246-2.012 87.108 10.092 120.346 33.208 24.835 17.271 42.743 44.271 51.787 78.077 6.673 24.946 8.409 54.116 4.643 78.03-1.579 10.022-10.591 15.649-18.297 16.637-.833.106-1.643.158-2.424.158zM326.457 93.654c.473 0 .946.003 1.422.008 48.287.526 81.653 14.175 102.002 41.725 17.202 23.289 21.452 51.718 24.866 74.56 1.745 11.67 3.251 21.748 6.13 28.356.574 1.319 3.071 1.976 6.07 1.589 5.556-.711 12.035-4.65 13.133-11.618 5.535-35.146 1.386-111.779-53.929-150.248-32.175-22.377-74.686-34.094-116.642-32.141-39.292 1.828-73.158 15.319-90.592 36.091-35.28 42.033-44.035 98.139-22.305 142.936 3.933 8.107 7.978 12.563 11.4 12.564h.071c4.013-.073 7.615-6.214 8.561-8.359a.292.292 0 0 1 .014-.031c1.612-3.547 2.992-10.548 4.739-19.411 3.83-19.434 9.618-48.802 24.703-72.869 17.949-28.637 44.979-43.149 80.355-43.149z" fill="#0b122d"/><path d="M226.591 112.001c-27.174 51.92 17.75 107.685 17.75 107.685.734-75.175 59.514-58.548 83.506-123.025 8.023 34.327 67.22 70.775 67.22 70.775-13.91-11.891-16.418-49.519-16.418-49.519 50.034 63.915 140.062 66.227 140.062 66.227-45.669-38.904-15.269-87.439-64.227-137.901-49.969-51.504-122.779-20.651-141.502-3.49" fill="#ee83f9"/><path d="M244.342 222.686a3 3 0 0 1-2.337-1.118c-.471-.584-11.618-14.546-19.53-35.18-10.568-27.561-10.063-53.764 1.458-75.777a2.998 2.998 0 0 1 4.049-1.268 3.001 3.001 0 0 1 1.267 4.05c-20.452 39.076 1.864 81.046 12.471 97.365 2.843-36.543 20.985-49.706 40.111-63.583 16.175-11.736 32.901-23.871 43.204-51.56.461-1.24 1.678-2.016 3.001-1.948a3 3 0 0 1 2.731 2.312c5.405 23.127 35.803 47.815 53.357 60.423-6.889-15.889-8.391-37.098-8.47-38.284a2.998 2.998 0 0 1 5.355-2.049c25.319 32.344 61.353 48.309 87.123 56.006 17.794 5.315 33.288 7.534 42.308 8.448-17.943-18.441-21.608-38.651-25.467-59.928-4.236-23.351-8.616-47.496-32.645-72.264-26.266-27.074-57.967-29.415-79.935-26.607-27.304 3.486-49.278 15.808-57.387 23.24a3.001 3.001 0 0 1-4.053-4.424c10.392-9.524 33.813-21.338 60.681-24.769 23.326-2.98 57.008-.472 85.001 28.382 25.301 26.078 30.051 52.266 34.242 75.37 4.079 22.487 7.932 43.728 29.778 62.337a2.999 2.999 0 0 1 .856 3.356 2.987 2.987 0 0 1-2.879 1.927c-.935-.024-23.236-.688-52.047-9.27-24.543-7.311-58.11-21.899-83.832-50.415 1.69 11.607 5.666 30.35 14.261 37.697a3 3 0 0 1-3.522 4.835c-2.277-1.402-52.015-32.322-65.94-64.772-11.081 24.234-27.531 36.17-42.199 46.812-20.186 14.646-37.619 27.294-38.013 67.684a3 3 0 0 1-2.999 2.971z" fill="#0b122d"/><path d="M458.128 239.501c8.387-13.714 25.535-20.088 41.218-14.365 17.886 6.528 27.094 26.319 20.566 44.205s-26.319 27.094-44.205 20.566c-6.313-2.304-11.825-6.337-15.665-11.278-.82 4.879-1.727 9.616-2.781 14.106" fill="#c66a52"/><path d="M457.263 295.737a3.001 3.001 0 0 1-2.924-3.686c.955-4.068 1.852-8.621 2.743-13.919a3 3 0 0 1 5.327-1.343c3.548 4.565 8.635 8.224 14.325 10.301 16.303 5.947 34.408-2.474 40.358-18.776s-2.473-34.408-18.776-40.358c-14.025-5.118-29.852.396-37.63 13.111a3 3 0 1 1-5.119-3.131c9.262-15.144 28.106-21.711 44.805-15.617 19.412 7.085 29.44 28.642 22.356 48.052-7.085 19.412-28.642 29.44-48.052 22.356a39.12 39.12 0 0 1-12.736-7.669 198.742 198.742 0 0 1-1.76 8.364 3.002 3.002 0 0 1-2.918 2.315z" fill="#0b122d"/><path d="M480.074 266.436a3 3 0 0 1-1.552-5.569l19.564-11.798a3 3 0 0 1 3.098 5.139l-19.564 11.798a2.989 2.989 0 0 1-1.546.431z" fill="#0b122d"/><path d="M495.52 272.075a3 3 0 0 1-2.704-1.697l-11.086-22.985a3 3 0 0 1 5.404-2.608l11.086 22.985a3 3 0 0 1-2.7 4.305zM306.206 46.06a3.001 3.001 0 0 1-.134-5.997l6.772-.308a2.999 2.999 0 1 1 .272 5.994l-6.772.308a3.223 3.223 0 0 1-.139.003z" fill="#0b122d"/><path d="M222.737 236.606c-6.902-17.537-27.459-24.272-43.389-19.275-18.167 5.698-28.275 25.045-22.577 43.213 5.698 18.167 25.045 28.275 43.213 22.577 6.412-2.011 12.766-5.552 16.83-10.311.328 3.783.965 8.436 1.804 13.653" fill="#c66a52"/><path d="M218.614 289.462a3 3 0 0 1-2.958-2.523c-.468-2.91-.853-5.517-1.16-7.854-3.756 2.891-8.42 5.269-13.614 6.897-19.715 6.184-40.789-4.825-46.973-24.542-6.184-19.716 4.825-40.788 24.542-46.973 16.607-5.211 39.331 1.354 47.078 21.04a3 3 0 0 1-5.583 2.198c-6.483-16.475-25.656-21.921-39.699-17.513-16.56 5.195-25.807 22.894-20.613 39.453s22.893 25.805 39.453 20.612c6.444-2.022 12.074-5.447 15.446-9.397a3.009 3.009 0 0 1 3.197-.909 3 3 0 0 1 2.073 2.599c.302 3.483.883 7.878 1.777 13.436a3 3 0 0 1-2.966 3.476z" fill="#0b122d"/><path d="M198.488 259.469a2.985 2.985 0 0 1-1.663-.505l-19.001-12.686a3 3 0 1 1 3.331-4.99l19.001 12.686a3 3 0 0 1-1.668 5.495z" fill="#0b122d"/><path d="M182.798 264.392a3 3 0 0 1-2.637-4.426l12.132-22.451a3 3 0 0 1 5.278 2.851l-12.132 22.451a2.997 2.997 0 0 1-2.642 1.575z" fill="#0b122d"/><rect fill="#fff" height="26.247" rx="13.123" width="363.242" x="196.332" y="569.755"/><path d="M546.45 599.002H209.455c-8.891 0-16.124-7.233-16.124-16.124s7.233-16.123 16.124-16.123H546.45c8.89 0 16.123 7.232 16.123 16.123s-7.233 16.124-16.123 16.124zm-336.995-26.247c-5.582 0-10.124 4.541-10.124 10.123s4.542 10.124 10.124 10.124H546.45c5.582 0 10.123-4.542 10.123-10.124s-4.541-10.123-10.123-10.123z" fill="#0b122d"/><rect fill="#5c79f7" height="26.247" rx="13.123" width="268.96" x="196.332" y="569.755"/><path d="M452.168 599.002H209.455c-8.891 0-16.124-7.233-16.124-16.124s7.233-16.123 16.124-16.123h242.713c8.891 0 16.124 7.232 16.124 16.123s-7.233 16.124-16.124 16.124zm-242.713-26.247c-5.582 0-10.124 4.541-10.124 10.123s4.542 10.124 10.124 10.124h242.713c5.582 0 10.124-4.542 10.124-10.124s-4.542-10.123-10.124-10.123z" fill="#0b122d"/><rect fill="#fff" height="26.247" rx="13.123" width="363.242" x="196.332" y="665.944"/><path d="M546.45 695.191H209.455c-8.891 0-16.124-7.232-16.124-16.123s7.233-16.123 16.124-16.123H546.45c8.89 0 16.123 7.232 16.123 16.123s-7.233 16.123-16.123 16.123zm-336.995-26.246c-5.582 0-10.124 4.541-10.124 10.123s4.542 10.123 10.124 10.123H546.45c5.582 0 10.123-4.541 10.123-10.123s-4.541-10.123-10.123-10.123z" fill="#0b122d"/><rect fill="#5c79f7" height="26.247" rx="13.123" width="225.947" x="196.332" y="665.944"/><path d="M409.155 695.191h-199.7c-8.891 0-16.124-7.232-16.124-16.123s7.233-16.123 16.124-16.123h199.7c8.89 0 16.123 7.232 16.123 16.123s-7.233 16.123-16.123 16.123zm-199.7-26.246c-5.582 0-10.124 4.541-10.124 10.123s4.542 10.123 10.124 10.123h199.7c5.582 0 10.123-4.541 10.123-10.123s-4.541-10.123-10.123-10.123z" fill="#0b122d"/><rect fill="#fff" height="26.247" rx="13.123" width="363.242" x="196.332" y="762.134"/><path d="M546.45 791.38H209.455c-8.891 0-16.124-7.232-16.124-16.123s7.233-16.123 16.124-16.123H546.45c8.89 0 16.123 7.232 16.123 16.123s-7.233 16.123-16.123 16.123zm-336.995-26.246c-5.582 0-10.124 4.541-10.124 10.123s4.542 10.123 10.124 10.123H546.45c5.582 0 10.123-4.541 10.123-10.123s-4.541-10.123-10.123-10.123z" fill="#0b122d"/><rect fill="#5c79f7" height="26.247" rx="13.123" width="294.157" x="196.332" y="762.134"/><path d="M477.365 791.38h-267.91c-8.891 0-16.124-7.232-16.124-16.123s7.233-16.123 16.124-16.123h267.91c8.891 0 16.124 7.232 16.124 16.123s-7.233 16.123-16.124 16.123zm-267.91-26.246c-5.582 0-10.124 4.541-10.124 10.123s4.542 10.123 10.124 10.123h267.91c5.582 0 10.124-4.541 10.124-10.123s-4.542-10.123-10.124-10.123z" fill="#0b122d"/><rect fill="#fff" height="26.247" rx="13.123" width="363.242" x="196.332" y="858.323"/><path d="M546.45 887.57H209.455c-8.891 0-16.124-7.232-16.124-16.123s7.233-16.124 16.124-16.124H546.45c8.89 0 16.123 7.233 16.123 16.124s-7.233 16.123-16.123 16.123zm-336.995-26.247c-5.582 0-10.124 4.542-10.124 10.124s4.542 10.123 10.124 10.123H546.45c5.582 0 10.123-4.541 10.123-10.123s-4.541-10.124-10.123-10.124z" fill="#0b122d"/><rect fill="#5c79f7" height="26.247" rx="13.123" width="249.129" x="196.332" y="858.323"/><path d="M432.337 887.57H209.455c-8.891 0-16.124-7.232-16.124-16.123s7.233-16.124 16.124-16.124h222.882c8.891 0 16.124 7.233 16.124 16.124s-7.233 16.123-16.124 16.123zm-222.882-26.247c-5.582 0-10.124 4.542-10.124 10.124s4.542 10.123 10.124 10.123h222.882c5.582 0 10.124-4.541 10.124-10.123s-4.542-10.124-10.124-10.124zm-97.134-161.188h18.257v6.507c0 5.038-4.09 9.129-9.129 9.129-5.038 0-9.129-4.09-9.129-9.129v-6.507z" fill="#0b122d"/><path d="M121.45 718.771c-6.688 0-12.129-5.441-12.129-12.129v-6.508a3 3 0 0 1 3-3h18.257a3 3 0 0 1 3 3v6.508c0 6.688-5.441 12.129-12.128 12.129zm-6.129-15.637v3.508c0 3.38 2.75 6.129 6.129 6.129s6.128-2.749 6.128-6.129v-3.508z" fill="#0b122d"/><path d="M146.706 667.621c0-13.948-11.307-25.256-25.256-25.256s-25.256 11.307-25.256 25.256c0 17.867 16.127 17.867 16.127 27.075v5.439h18.257v-5.439c0-9.208 16.127-9.208 16.127-27.075z" fill="#fff"/><path d="M130.579 703.135h-18.257a3 3 0 0 1-3-3v-5.439c0-2.294-1.702-3.754-4.962-6.348-4.711-3.747-11.164-8.88-11.164-20.728 0-15.58 12.675-28.255 28.255-28.255s28.255 12.675 28.255 28.255c0 11.848-6.453 16.98-11.165 20.728-3.261 2.594-4.962 4.054-4.962 6.348v5.439a3 3 0 0 1-3 3zm-15.258-6h12.257v-2.439c0-5.295 3.674-8.218 7.228-11.044 4.375-3.479 8.899-7.078 8.899-16.031 0-12.271-9.984-22.255-22.255-22.255s-22.255 9.983-22.255 22.255c0 8.953 4.524 12.552 8.899 16.031 3.553 2.826 7.228 5.749 7.228 11.044v2.439z" fill="#0b122d"/><path d="M121.45 703.135a3 3 0 0 1-3-3V676.75a3 3 0 1 1 6 0v23.385a3 3 0 0 1-3 3z" fill="#0b122d"/><path d="M121.45 679.75a3.002 3.002 0 0 1-1.641-.488l-10.755-7.028a3.001 3.001 0 0 1 3.282-5.023l9.114 5.956 9.114-5.956a3 3 0 0 1 3.282 5.023l-10.755 7.028a3.004 3.004 0 0 1-1.641.488z" fill="#0b122d"/><path d="M121.45 556.378c19.707 0 35.683 11.865 35.683 26.5 0 7.246-3.92 13.811-10.267 18.595l.009-.004c-.038.029 2.474 16.357 2.474 16.357l-20.731-8.983a47.854 47.854 0 0 1-7.169.535c-19.707 0-35.683-11.865-35.683-26.5s15.976-26.5 35.683-26.5z" fill="#fff"/><path d="M149.349 620.826c-.403 0-.809-.081-1.192-.247l-19.954-8.646c-2.214.296-4.48.445-6.751.446-21.331 0-38.684-13.234-38.684-29.501s17.353-29.5 38.683-29.5 38.684 13.233 38.684 29.5c0 7.442-3.553 14.438-10.047 19.868a4183.9 4183.9 0 0 0 2.228 14.624 3.001 3.001 0 0 1-2.965 3.456zm-20.73-14.983c.409 0 .815.084 1.193.247l15.749 6.825-.428-2.805a2167.12 2167.12 0 0 1-.853-5.629c-.137-.916-.247-1.646-.31-2.244a3.002 3.002 0 0 1-.037-1.384c.077-.714.364-1.159.975-1.653.049-.043.1-.084.153-.123 5.851-4.409 9.073-10.162 9.073-16.199 0-12.958-14.662-23.5-32.684-23.5s-32.683 10.542-32.683 23.5 14.662 23.501 32.683 23.501c2.269 0 4.53-.17 6.719-.502.149-.022.3-.034.45-.034z" fill="#0b122d"/><circle cx="135.219" cy="582.879" fill="#0b122d" r="5.093"/><circle cx="107.681" cy="582.879" fill="#0b122d" r="5.093"/><circle cx="121.45" cy="582.879" fill="#0b122d" r="5.093"/><path d="M104.559 746.647h33.783v18.483c0 8.444-6.856 15.3-15.3 15.3h-3.183c-8.444 0-15.3-6.856-15.3-15.3z" fill="#fff"/><g fill="#0b122d"><path d="M123.041 783.43h-3.183c-10.091 0-18.3-8.209-18.3-18.3v-18.483a3 3 0 0 1 3-3h33.783a3 3 0 0 1 3 3v18.483c0 10.091-8.209 18.3-18.3 18.3zm-15.482-33.783v15.483c0 6.782 5.518 12.3 12.3 12.3h3.183c6.782 0 12.3-5.518 12.3-12.3v-15.483z"/><path d="M121.45 780.431c.315 11.37 5.945 19.181 16.892 23.436h-33.783c10.946-4.255 16.577-12.067 16.892-23.436z"/><path d="M138.342 806.867h-33.783a3 3 0 0 1-1.087-5.796c9.799-3.81 14.699-10.588 14.979-20.723a3 3 0 0 1 5.998 0c.281 10.135 5.181 16.913 14.979 20.723a2.999 2.999 0 0 1-1.087 5.796zm-22.814-6h11.845c-2.494-2.175-4.47-4.705-5.922-7.582-1.453 2.877-3.428 5.407-5.922 7.582zm22.814-28.871a3 3 0 1 1 0-6c5.225 0 9.128-2.531 9.128-4.795s-3.904-4.795-9.128-4.795a3 3 0 1 1 0-6c8.483 0 15.128 4.741 15.128 10.795s-6.645 10.795-15.128 10.795zm-33.783 0c-8.483 0-15.128-4.741-15.128-10.795s6.645-10.795 15.128-10.795a3 3 0 1 1 0 6c-5.225 0-9.128 2.531-9.128 4.795s3.904 4.795 9.128 4.795a3 3 0 1 1 0 6z"/></g><path d="M124.72 864.907v-11.841h-11.841a6.54 6.54 0 1 1-13.08 0H87.958v11.841a6.54 6.54 0 1 0 0 13.08v11.841h11.841a6.54 6.54 0 1 1 13.08 0h11.841v-11.841a6.54 6.54 0 1 0 0-13.08z" fill="#fff"/><path d="M124.72 892.826h-11.841a3 3 0 0 1-3-3c0-1.951-1.588-3.539-3.54-3.539s-3.54 1.588-3.54 3.539a3 3 0 0 1-3 3H87.958a3 3 0 0 1-3-3v-9.324c-3.795-1.26-6.539-4.844-6.539-9.056s2.744-7.797 6.539-9.057v-9.324a3 3 0 0 1 3-3h11.841a3 3 0 0 1 3 3c0 1.952 1.588 3.54 3.54 3.54s3.54-1.588 3.54-3.54a3 3 0 0 1 3-3h11.841a3 3 0 0 1 3 3v9.324c3.795 1.26 6.54 4.844 6.54 9.057s-2.745 7.796-6.54 9.056v9.324a3 3 0 0 1-3 3zm-9.324-6h6.324v-8.841a3 3 0 0 1 3-3c1.952 0 3.54-1.588 3.54-3.539s-1.588-3.54-3.54-3.54a3 3 0 0 1-3-3v-8.841h-6.324c-1.261 3.795-4.844 6.54-9.057 6.54s-7.796-2.745-9.057-6.54h-6.324v8.841a3 3 0 0 1-3 3c-1.952 0-3.539 1.588-3.539 3.54s1.587 3.539 3.539 3.539a3 3 0 0 1 3 3v8.841h6.324c1.26-3.795 4.844-6.539 9.056-6.539s7.796 2.744 9.057 6.539z" fill="#0b122d"/><path d="M161.481 864.907v-11.841H149.64a6.54 6.54 0 1 0-13.08 0h-11.84v11.841a6.54 6.54 0 1 1 0 13.08v11.841h11.84a6.54 6.54 0 1 0 13.08 0h11.841v-11.841a6.54 6.54 0 1 1 0-13.08z" fill="#fff"/><path d="M143.101 899.367c-4.213 0-7.796-2.745-9.057-6.54h-9.323a3 3 0 0 1-3-3v-11.841a3 3 0 0 1 3-3c1.952 0 3.54-1.588 3.54-3.539s-1.588-3.54-3.54-3.54a3 3 0 0 1-3-3v-11.841a3 3 0 0 1 3-3h9.324c1.26-3.795 4.844-6.539 9.057-6.539s7.796 2.744 9.056 6.539h9.324a3 3 0 0 1 3 3v11.841a3 3 0 0 1-3 3c-1.952 0-3.54 1.588-3.54 3.54s1.588 3.539 3.54 3.539a3 3 0 0 1 3 3v11.841a3 3 0 0 1-3 3h-9.323c-1.26 3.795-4.844 6.54-9.057 6.54zm-15.381-12.541h8.84a3 3 0 0 1 3 3c0 1.952 1.588 3.54 3.54 3.54s3.54-1.588 3.54-3.54a3 3 0 0 1 3-3h8.84v-6.324c-3.795-1.26-6.54-4.844-6.54-9.056s2.745-7.797 6.54-9.057v-6.324h-8.84a3 3 0 0 1-3-3c0-1.951-1.588-3.539-3.54-3.539s-3.54 1.588-3.54 3.539a3 3 0 0 1-3 3h-8.84v6.324c3.795 1.26 6.54 4.844 6.54 9.057s-2.745 7.796-6.54 9.056z" fill="#0b122d"/></svg></g><g transform="translate(2305.9090909090905 144.54545454545453) rotate(0.0 117.9545454545455 117.95454545454545) scale(1.3649539781702047 1.3649539781702043)"><svg width="172.833" height="172.833" viewBox="0 0 172.833 172.833"><circle cx="86.416" cy="86.416" fill="#fdf151" r="83.416"/><g fill="#0b122d"><path d="M86.417 172.833C38.766 172.833 0 134.067 0 86.417S38.766 0 86.417 0s86.417 38.767 86.417 86.417-38.766 86.416-86.417 86.416zM86.417 6C42.075 6 6 42.075 6 86.417s36.075 80.416 80.417 80.416 80.417-36.074 80.417-80.416S130.758 6 86.417 6z"/><path d="M81.581 123.257a9.993 9.993 0 0 1-6.904-2.767L44.488 91.674c-3.995-3.813-4.142-10.144-.329-14.138 3.812-3.996 10.143-4.143 14.138-.329l22.042 21.04 38.526-51.368c3.313-4.418 9.582-5.314 14-2 4.418 3.313 5.313 9.582 2 14l-45.284 60.378a10 10 0 0 1-8 4z"/></g></svg></g><g transform="translate(1414.090909090909 767.7272727272726) rotate(0.0 591.1363636363635 87.27272727272731) scale(1.3633627475832153 1.3710809044849346)"><svg width="867.174" height="127.305" viewBox="0 0 867.174 127.305"><path d="M65.344 124.305c-4.981 0-9.97-1.85-13.848-5.572L9.149 78.08a20.002 20.002 0 0 1 0-28.856L51.496 8.572c7.969-7.65 20.628-7.391 28.278.577 7.649 7.969 7.391 20.629-.577 28.278L51.88 63.652l27.317 26.225c7.968 7.649 8.227 20.31.577 28.278a19.941 19.941 0 0 1-14.431 6.149z" fill="#5c79f7"/><path d="M65.344 127.305a22.886 22.886 0 0 1-15.925-6.408L7.072 80.244A23.11 23.11 0 0 1 0 63.653c0-6.23 2.578-12.277 7.072-16.592L49.419 6.408c9.148-8.784 23.736-8.483 32.52.663 8.782 9.149 8.485 23.738-.664 32.521L56.212 63.653l25.063 24.061c9.148 8.782 9.446 23.371.664 32.52-4.377 4.561-10.271 7.072-16.595 7.072zM65.343 6.008a16.934 16.934 0 0 0-11.769 4.729L11.227 51.389C7.905 54.578 6 59.048 6 63.653s1.905 9.074 5.227 12.264l42.347 40.652a16.916 16.916 0 0 0 11.77 4.736c4.675 0 9.031-1.856 12.267-5.227 6.491-6.763 6.271-17.546-.491-24.037L49.803 65.816a3 3 0 0 1 0-4.328L77.12 35.263c6.762-6.491 6.982-17.274.491-24.037a16.959 16.959 0 0 0-12.268-5.219z" fill="#0b122d"/><path d="M801.83 3c4.981 0 9.97 1.85 13.848 5.572l42.347 40.652a20.003 20.003 0 0 1 0 28.856l-42.347 40.652c-7.969 7.65-20.628 7.391-28.278-.577-7.649-7.969-7.391-20.629.577-28.278l27.317-26.225-27.317-26.225c-7.968-7.649-8.227-20.31-.577-28.278A19.941 19.941 0 0 1 801.831 3z" fill="#5c79f7"/><path d="M801.833 127.294c-6.048 0-12.087-2.364-16.597-7.061-8.782-9.149-8.485-23.738.664-32.521l25.063-24.061L785.9 39.59c-9.148-8.782-9.446-23.371-.664-32.52C789.613 2.512 795.507 0 801.83 0a22.886 22.886 0 0 1 15.925 6.408l42.347 40.652c4.494 4.314 7.072 10.361 7.072 16.592s-2.578 12.277-7.072 16.592l-42.347 40.652c-4.451 4.273-10.191 6.396-15.923 6.397zM801.83 6c-4.675 0-9.031 1.856-12.267 5.227-6.491 6.763-6.271 17.546.491 24.037l27.317 26.225a3 3 0 0 1 0 4.328l-27.317 26.225c-6.762 6.491-6.982 17.274-.491 24.037 6.493 6.761 17.275 6.981 24.037.49l42.347-40.652c3.322-3.189 5.227-7.659 5.227-12.264s-1.905-9.074-5.227-12.264L813.6 10.737a16.916 16.916 0 0 0-11.77-4.736z" fill="#0b122d"/></svg></g></svg>