<svg xmlns="http://www.w3.org/2000/svg" viewBox="0 0 1600 1600" width="1600" height="1600"><g transform="translate(695.0 139.0) rotate(0.0 328.0 657.5) scale(3.28 3.2875)"><svg width="200" height="400" viewBox="0 0 200 400"><linearGradient id="a" gradientTransform="matrix(.1702 0 0 -.1702 -396.2191 -184.383)" gradientUnits="userSpaceOnUse" x1="2826.748" x2="3018.223" y1="-3296.242" y2="-3296.242"><stop offset="0" stop-color="#a1c3fc"/><stop offset="1" stop-color="#8ab8fd"/></linearGradient><path d="M170.483 400H29.06c-14.49 0-26.237-11.621-26.237-25.953V25.954C2.823 11.62 14.569.001 29.06.001h141.422c14.49 0 26.237 11.62 26.237 25.953v348.094C196.72 388.38 184.972 400 170.483 400z" fill="#c1d7fd"/><ellipse cx="71.914" cy="25.119" fill="#a1c3fc" rx="4.591" ry="4.541"/><path d="M170.483 0h-27.148a145.952 145.952 0 0 0-4.101 2.624c-35.569 23.556-66.161 56.908-78.064 97.58-4.799 16.394-6.46 33.511-10.109 50.193-8.351 38.196-26.96 73.455-48.236 106.401v117.248c0 14.334 11.746 25.953 26.237 25.953h141.422c14.49 0 26.237-11.621 26.237-25.953V25.954C196.72 11.62 184.972 0 170.483 0z" fill="#a1c3fc"/><ellipse cx="101.188" cy="376.637" fill="url(#a)" rx="16.295" ry="16.118"/><path d="m84.382 23.78 32.659-4.031.701 5.556-32.66 4.03z" fill="#a1c3fc"/><path d="M10.503 45.282h178.538v309.834H10.503z" fill="#fff"/><ellipse cx="99.268" cy="374.738" fill="#c1d7fd" rx="12.454" ry="12.32"/><path d="M113.05 24.848H86.213c-.531 0-.96-.425-.96-.949s.429-.949.96-.949h26.837c.531 0 .96.425.96.949s-.43.949-.96.949z" fill="#428dfc"/><ellipse cx="72.028" cy="24.567" fill="#428dfc" rx="3.15" ry="3.116"/><g fill="#428DFC"><path d="M0 46.176h3.225v13.757H0zm0 30.307h3.225v24.725H0zm196.775 0H200v24.725h-3.225zM0 108.783h3.225v24.725H0z"/></g><path d="m68.426 18.107 4.448 4.753-4.805 4.401-4.448-4.753z" fill="#fff"/><path d="m65.274 18.622 3.145 3.36-3.397 3.111-3.145-3.36z" fill="#a1c3fc"/></svg></g><g transform="translate(901.0 397.0) rotate(0.0 122.5 122.5) scale(2.45 2.45)"><svg width="100" height="100" viewBox="0 0 100 100"><circle fill="#CADDFF" cx="50" cy="50" r="50"/></svg></g><g transform="translate(991.0 449.0) rotate(0.0 32.5 32.5) scale(0.65 0.65)"><svg width="100" height="100" viewBox="0 0 100 100"><circle fill="#23286B" cx="50" cy="50" r="50"/></svg></g><g transform="translate(970.0 501.0) rotate(-138.32868623300382 55.5 52.0) scale(0.40406393674761293 0.39917708109435934)"><svg width="274.709" height="260.536" viewBox="0 0 274.709 260.536"><linearGradient id="b" gradientUnits="userSpaceOnUse" x1="164.62" x2="-51.85" y1="131.601" y2="44.729"><stop offset="0" stop-color="#23286b"/><stop offset="1" stop-color="#151a4f"/></linearGradient><path d="M0 214.899c64.264 62.248 166.823 60.613 229.071-3.651C284.923 153.587 290.123 63.718 241.293 0" fill="url(#b)"/><path d="M225.429 38.891a.575.575 0 0 0 .536.604.547.547 0 0 0 .604-.485l.003-.031a.575.575 0 0 0-.536-.604.563.563 0 0 0-.607.516zm.958-13.719a.57.57 0 1 0 1.14.068.563.563 0 0 0-.515-.607h-.001a.609.609 0 0 0-.624.539zm.976-13.742a.561.561 0 0 0 .536.604.547.547 0 0 0 .607-.516.608.608 0 0 0-.539-.624.575.575 0 0 0-.604.536zm24.129 17.811a.577.577 0 0 0 .727.352.556.556 0 0 0 .357-.701l-.002-.006a.547.547 0 0 0-.668-.388l-.042.013a.608.608 0 0 0-.372.73zm-4.357-13.066a.608.608 0 0 0 .73.372.577.577 0 0 0 .352-.727.566.566 0 0 0-.717-.355l-.01.003a.555.555 0 0 0-.357.7l.002.007zM242.781 3.13a.546.546 0 0 0 .681.363l.026-.008a.566.566 0 0 0 .381-.702l-.009-.027a.571.571 0 1 0-1.079.374zm-4.652 24.158c.074.275.35.444.629.386a.49.49 0 0 0 .373-.585l-.005-.021a.507.507 0 0 0-.599-.391l-.009.002a.53.53 0 0 0-.389.609zm-2.744-11.953a.504.504 0 0 0 .606.368.49.49 0 0 0 .374-.585l-.005-.021a.507.507 0 0 0-.6-.391l-.009.002a.523.523 0 0 0-.366.627zm9.88 3.216a.62.62 0 0 0 .84.13.593.593 0 0 0-.707-.951.602.602 0 0 0-.133.821zm-8.349-11.465a.6.6 0 0 0 .82.133.587.587 0 0 0-.682-.956l-.005.003a.594.594 0 0 0-.133.82zM215 24.877a.624.624 0 0 0 .718.435.593.593 0 0 0 .415-.715.576.576 0 0 0-.686-.44l-.011.003a.593.593 0 0 0-.435.717H215zm15.231-12.919a.597.597 0 0 0 .823.153.58.58 0 0 0 .156-.803.57.57 0 0 0-.805-.176.588.588 0 0 0-.184.81l.01.016z" fill="#fff" opacity=".86"/></svg></g><g transform="translate(869.0 1074.0) rotate(0.0 154.5 52.5) scale(2.7202380428371464 2.6990900210786077)"><svg width="113.593" height="38.902" viewBox="0 0 113.593 38.902"><linearGradient id="c" gradientUnits="userSpaceOnUse" x2="113.593" y1="19.451" y2="19.451"><stop offset="0" stop-color="#e94a47"/><stop offset="1" stop-color="#dd2f2f"/></linearGradient><linearGradient id="d" gradientUnits="userSpaceOnUse" x1="70.93" x2="42.663" y1="19.451" y2="19.451"><stop offset="0" stop-color="#d6d7d8"/><stop offset="1" stop-color="#eee"/></linearGradient><rect fill="url(#c)" height="38.902" rx="18.264" width="113.593"/><path d="m42.663 15.046 8.698 14.162h7.192L70.93 9.694h-8.363l-8.251 13.437-5.074-8.085z" fill="url(#d)"/></svg></g><g transform="translate(968.0 668.0) rotate(89.99999999999982 55.0 249.5) scale(7.236842105263158 6.949860724233983)"><svg width="15.2" height="71.8" viewBox="0 0 15.2 71.8"><path d="M0 0h15.2v71.8H0z" fill="#E9E9E9"/></svg></g><g transform="translate(969.0 527.0) rotate(89.99999999999982 55.0 249.5) scale(7.236842105263158 6.949860724233983)"><svg width="15.2" height="71.8" viewBox="0 0 15.2 71.8"><path d="M0 0h15.2v71.8H0z" fill="#E9E9E9"/></svg></g><g transform="translate(849.0 907.0) rotate(0.0 13.5 13.5) scale(0.27 0.27)"><svg width="100" height="100" viewBox="0 0 100 100"><circle fill="#23286B" cx="50" cy="50" r="50"/></svg></g><g transform="translate(928.0 907.0) rotate(0.0 13.5 13.5) scale(0.27 0.27)"><svg width="100" height="100" viewBox="0 0 100 100"><circle fill="#23286B" cx="50" cy="50" r="50"/></svg></g><g transform="translate(1007.0 907.0) rotate(0.0 13.5 13.5) scale(0.27 0.27)"><svg width="100" height="100" viewBox="0 0 100 100"><circle fill="#23286B" cx="50" cy="50" r="50"/></svg></g><g transform="translate(1086.0 907.0) rotate(0.0 13.5 13.5) scale(0.27 0.27)"><svg width="100" height="100" viewBox="0 0 100 100"><circle fill="#23286B" cx="50" cy="50" r="50"/></svg></g><g transform="translate(1165.0 907.0) rotate(0.0 13.5 13.5) scale(0.27 0.27)"><svg width="100" height="100" viewBox="0 0 100 100"><circle fill="#23286B" cx="50" cy="50" r="50"/></svg></g><g transform="translate(845.0 768.0) rotate(0.0 134.0 12.0) scale(12.547785760604166 12.0)"><svg width="21.358" height="2" viewBox="0 0 21.358 2"><path d="M20.359 2H1a1 1 0 0 1 0-2h19.36a1 1 0 0 1 0 2z" fill="#23286B"/></svg></g><g transform="translate(253.0 365.0) rotate(0.0 224.5 544.5) scale(1.810483870967742 1.815)"><svg width="248" height="600" viewBox="0 0 248 600"><linearGradient id="e" gradientUnits="userSpaceOnUse" x1="6376.314" y1="9280.018" x2="4682.657" y2="8218.93" gradientTransform="matrix(0.0741 0 0 0.0741 -230.5491 -49.4972)"><stop offset=".129" style="stop-color:#428dfc"/><stop offset=".999" style="stop-color:#1d72d8"/></linearGradient><path fill="url(#e)" d="M195.148 550.192h-38.444s-20.036 18.868-41.526 28.07c-21.49 9.2-27.937 21.622-27.937 21.622l125.728-.004-17.809-49.626"/><path fill="#428DFC" d="m116.954 550.192-40.475-.004s-17.41 18.99-38.902 28.191C16.087 587.578 9.641 600 9.641 600l125.728-.004-18.415-49.804"/><linearGradient id="f" gradientUnits="userSpaceOnUse" x1="-4149.622" y1="1658.438" x2="-4031.421" y2="2281.672" gradientTransform="matrix(-0.0741 0 0 0.0741 -237.6964 -49.4972)"><stop offset="0" style="stop-color:#ffbeb6"/><stop offset="1" style="stop-color:#f2a19c"/></linearGradient><path fill="url(#f)" d="M70.604 141.81s-11.769-6.099-13.07-12.682c-1.102-5.571-11.659-11.262-11.659-11.262l8.797 17.534 4.636 9.821c0-.002 14.273 18.567 11.296-3.411z"/><path fill="#23286B" d="m32.585 140.425 22.349-5.086a2.454 2.454 0 0 0 1.41-3.881L26.895 92.836a2.461 2.461 0 0 0-2.547-.896L1.867 97.51a2.455 2.455 0 0 0-1.352 3.888l29.579 38.138a2.467 2.467 0 0 0 2.491.889z"/><linearGradient id="g" gradientUnits="userSpaceOnUse" x1="-3710.653" y1="2461.677" x2="-4061.589" y2="2808.113" gradientTransform="matrix(-0.0741 -7.542857e-004 -7.542857e-004 0.0741 -236.7857 -49.4683)"><stop offset="0" style="stop-color:#ffbeb6"/><stop offset="1" style="stop-color:#f2a19c"/></linearGradient><path fill="url(#g)" d="M64.498 144.076s-7.087-4.01-9.826-8.676c0 0-4.198.973-6.817 1.397 0 0-.342-6.654-13.491-7.778-11.856-1.014-10.293-3.588-17.629-5.984s-10.327-.234-10.741 2.213c0 0 7.72 2.787 9.498 5.643 1.778 2.856 3.902 9.842 10.336 12.102 6.433 2.259 29.072 5.03 33.699 19.911l4.971-18.828"/><linearGradient id="h" gradientUnits="userSpaceOnUse" x1="-5136.765" y1="1800.308" x2="-4802.524" y2="3105.941" gradientTransform="matrix(-0.0741 0 0 0.0741 -237.6964 -49.4972)"><stop offset="0" style="stop-color:#23286b"/><stop offset=".361" style="stop-color:#1e2361"/><stop offset="1" style="stop-color:#151a4f"/></linearGradient><path fill="url(#h)" d="M60.472 182.348s4.529 9.368 20.373 10.016c15.843.648 19.406 3.228 31.049 10.665 11.644 7.437 33.632 10.335 55.635-23.911 20.193-31.458 27.031-66.172 23.48-84.646-1.658-11.076-2.135-15.084-3.8-18.565-.227-.474-7.112 4.137-8.922 5.348-2.789 1.864-11.199 8.464-13.272 8.587-3.743 12.363-10.106 64.167-39.098 64.232-30.474.069-54.133-16.956-54.133-16.956l-11.312 45.23z"/><linearGradient id="i" gradientUnits="userSpaceOnUse" x1="1324.656" y1="3980.644" x2="6463.183" y2="6363.728" gradientTransform="matrix(0.0741 0 0 0.0741 -230.5491 -49.4972)"><stop offset="0" style="stop-color:#a1c3fc"/><stop offset=".696" style="stop-color:#81aef2"/><stop offset="1" style="stop-color:#78a9ef"/></linearGradient><path fill="url(#i)" d="M151.387 239.04s-43.443 90.734-53.301 130.354c-8.374 33.652 42.782 180.797 42.782 180.797h54.281s9.579-22.441-.639-43.601c-10.218-21.159-4.47-26.289-5.109-42.96-.639-16.672-1.916-42.317-14.688-70.53-12.773-28.212 26.821-58.989 37.039-78.225 10.218-19.236 25.544-58.347 17.879-79.506 0 0-38.216 2.033-40.771 2.675-2.553.643-37.473.994-37.473.996"/><path fill="#A1C3FC" d="M242.365 216.923c-.761.411-3.206 1.626-6.234 3.114a60.13 60.13 0 0 1-34.472 5.647l-45.114-6.018c-1.412 20.224-22.04 79.811-22.04 79.811-9.03 22.797-19.575 65.683-29.372 98.604-10.079 33.868-32.689 136.538-36.457 152.111h48.275c20.729-17.328 26.019-38.958 37.506-73.568 14.064-42.367 16.853-26.707 26.248-68.185 9.392-41.464 8.135-33.001 37.746-87.574 28.851-53.177 24.925-101.852 23.914-103.942z"/><path opacity=".86" fill="#FFF" d="M209.229 254.869a.314.314 0 0 0-.41.179.303.303 0 0 0 .158.407.314.314 0 0 0 .41-.179v-.001a.318.318 0 0 0-.158-.406zm-7.018-2.876a.316.316 0 1 0 .179.41.328.328 0 0 0-.179-.41zm-6.998-2.874a.316.316 0 1 0-.231.589.297.297 0 0 0 .385-.164l.006-.016a.29.29 0 0 0-.12-.391c-.015-.008-.028-.013-.04-.018zm-7.019-2.876a.317.317 0 0 0-.231.589.316.316 0 1 0 .231-.589zm-6.999-2.873a.316.316 0 1 0-.232.588.316.316 0 0 0 .232-.588zm5.715 34.263a.308.308 0 1 0-.164.405.308.308 0 0 0 .164-.405zm-2.914-6.979a.293.293 0 0 0-.374-.177l-.033.013a.316.316 0 0 0-.184.403.339.339 0 0 0 .427.165.306.306 0 0 0 .164-.404zm-2.912-6.977a.35.35 0 0 0-.425-.187.34.34 0 0 0-.166.426c.067.157.248.23.405.163a.317.317 0 0 0 .186-.402zm-2.933-7a.308.308 0 0 0-.405-.163.334.334 0 0 0-.166.426c.067.157.248.23.405.163a.334.334 0 0 0 .166-.426zm-23.302 20.87a.303.303 0 0 0-.389.181.29.29 0 0 0 .12.391c.011.006.024.011.037.016a.316.316 0 0 0 .232-.588zm42.786-12.181a.304.304 0 1 0 .005.429.288.288 0 0 0 .017-.408c-.006-.006-.014-.015-.022-.021zm-5.369-5.346a.307.307 0 0 0-.518.185c-.016.1.017.2.092.27a.076.076 0 0 0 .06.029l.022.002c.11.074.257.059.349-.038a.31.31 0 0 0 .01-.439c-.007-.002-.011-.006-.015-.009zm-5.372-5.326a.305.305 0 0 0-.43.005.302.302 0 0 0 .005.429.303.303 0 0 0 .426.016.31.31 0 0 0 .01-.439l-.011-.011zm-5.37-5.347a.307.307 0 0 0-.43.005.31.31 0 0 0-.01.439l.011.011a.288.288 0 0 0 .408.017c.007-.007.015-.013.022-.022a.313.313 0 0 0-.001-.45zm-10.749 27.297a.322.322 0 0 0-.003.643.322.322 0 0 0 .003-.643zm-.024-7.563a.33.33 0 0 0-.323.32c-.001.164.131.3.297.303l.027-.001a.309.309 0 0 0 .32-.298.345.345 0 0 0-.321-.324zm57.204 10.007a.587.587 0 0 0-.842.055.578.578 0 0 0 .055.818l.004.004a.587.587 0 0 0 .842-.055.58.58 0 0 0-.053-.818l-.006-.004zm-10.849-9.424a.58.58 0 0 0-.819.054l-.004.004a.597.597 0 0 0 .898.788.616.616 0 0 0-.075-.846zm-10.831-9.4a.6.6 0 0 0-.844.054.6.6 0 0 0 .898.79.585.585 0 0 0-.038-.828l-.016-.016zm-10.833-9.399a.587.587 0 0 0-.829.039l-.013.016a.577.577 0 0 0-.139.538l.022.002a.552.552 0 0 0 .172.303c.057.05.127.083.202.092a.584.584 0 0 0 .757-.329.586.586 0 0 0-.172-.661zm-11.158 64.439a.6.6 0 0 0-.558.63.57.57 0 0 0 .633.537.6.6 0 0 0 .558-.63.585.585 0 0 0-.633-.537c.001 0 .001 0 0 0zm-1.016-14.319a.588.588 0 0 0-.538.632v.001a.595.595 0 0 0 1.188-.072.635.635 0 0 0-.65-.561zm-.998-14.315a.635.635 0 0 0-.562.651.57.57 0 0 0 .633.537.587.587 0 0 0 .561-.608l-.001-.022a.603.603 0 0 0-.631-.558zm-1.021-14.297a.588.588 0 0 0-.538.632v.001a.596.596 0 1 0 .554-.633h-.016zm-.996-14.314a.598.598 0 0 0 .091 1.19.57.57 0 0 0 .538-.633.6.6 0 0 0-.629-.557zm53.946-3.614a.6.6 0 0 0-.758.367.595.595 0 1 0 .758-.367zm-13.626-4.539a.568.568 0 0 0-.727.342c-.004.008-.006.017-.009.027a.584.584 0 1 0 1.107.368.566.566 0 0 0-.371-.737zm-8.089 51.114a.603.603 0 1 0-.293.801l.011-.005a.607.607 0 0 0 .282-.796zm-6.412-12.836a.603.603 0 1 0-.293.801l.011-.005a.605.605 0 0 0 .282-.796zm-6.411-12.835a.63.63 0 0 0-.822-.263.603.603 0 0 0 .537 1.081.637.637 0 0 0 .285-.818zm-6.435-12.819a.59.59 0 0 0-1.07.491l.012.025c.142.291.493.41.784.268l.016-.007a.563.563 0 0 0 .276-.745c-.007-.01-.012-.021-.018-.032zm-6.411-12.837a.59.59 0 0 0-1.057.517.61.61 0 0 0 .797.282.589.589 0 0 0 .266-.789c-.002-.002-.005-.005-.006-.01zm-29.47 55.333a.568.568 0 0 0-.739.391.58.58 0 0 0 .363.735l.006.003a.6.6 0 0 0 .758-.367.632.632 0 0 0-.388-.762zm4.563-13.589a.591.591 0 0 0-.759.365.6.6 0 0 0 .366.757.634.634 0 0 0 .761-.387.58.58 0 0 0-.368-.735zm4.545-13.612a.6.6 0 0 0-.758.367.588.588 0 0 0 .388.759.568.568 0 0 0 .735-.369.598.598 0 0 0-.365-.757zm4.544-13.614a.6.6 0 0 0-.741.39.567.567 0 0 0 .369.734.6.6 0 0 0 .758-.367.61.61 0 0 0-.386-.757zm71.795-16.545a.471.471 0 0 0-.137.217.511.511 0 0 0 .095.399c.008-.214.017-.427.042-.616zm-17.997 46.812a.528.528 0 0 0-.896.555l.004.006a.528.528 0 0 0 .892-.561zm-6.793-10.855a.525.525 0 0 0-.727-.164.525.525 0 1 0 .562.89.516.516 0 0 0 .177-.708l-.012-.018zm-6.79-10.876a.381.381 0 0 0-.208-.2l-.02-.002a.54.54 0 0 0-.667.787c.157.242.48.316.727.164a.442.442 0 0 0 .215-.312.46.46 0 0 0-.047-.437zm-6.793-10.854a.535.535 0 1 0-.168.748.54.54 0 0 0 .168-.748zm-6.772-10.853a.56.56 0 0 0-.748-.167.535.535 0 0 0 .559.913.56.56 0 0 0 .189-.746zm-26.38 52.077a.527.527 0 0 0-.633.395l-.002.01a.51.51 0 0 0 .385.631.559.559 0 0 0 .655-.402.555.555 0 0 0-.405-.634zm2.886-12.472a.527.527 0 0 0-.633.395l-.003.01a.51.51 0 0 0 .385.631.526.526 0 0 0 .632-.384.542.542 0 0 0-.381-.652zm2.885-12.471a.527.527 0 0 0-.633.395l-.002.008a.5.5 0 0 0 .383.631.527.527 0 0 0 .633-.395l.002-.01a.532.532 0 0 0-.383-.629zm2.864-12.476a.552.552 0 0 0-.635.405.534.534 0 0 0 1.037.251.559.559 0 0 0-.402-.656zm2.906-12.468a.559.559 0 0 0-.655.402.532.532 0 1 0 1.04.233l.001-.004a.554.554 0 0 0-.386-.631zm47.069 10.598a.527.527 0 0 0-.736.116l-.011.015a.501.501 0 0 0 .087.703l.027.018a.52.52 0 0 0 .73-.092c.005-.006.01-.012.013-.018a.54.54 0 0 0-.11-.742zm-10.439-7.441a.558.558 0 0 0-.747.132.538.538 0 0 0 .132.746c.248.16.582.089.744-.158a.535.535 0 0 0-.129-.72zm-10.441-7.417a.533.533 0 0 0-.744.109l-.001.002c-.158.246-.1.57.132.746a.537.537 0 0 0 .747-.134.508.508 0 0 0-.134-.723zm-10.47 48.492a.557.557 0 0 0-.43.626.523.523 0 0 0 .606.426.535.535 0 0 0 .447-.602.55.55 0 0 0-.623-.45zm-2.111-12.625a.557.557 0 0 0-.43.626.523.523 0 0 0 .606.426.508.508 0 0 0 .432-.573l-.005-.032a.535.535 0 0 0-.603-.447zm-2.111-12.607a.508.508 0 0 0-.432.573l.005.032c.05.286.322.475.608.424a.523.523 0 0 0 .426-.603.51.51 0 0 0-.574-.433l-.033.007zm-2.109-12.627a.535.535 0 0 0-.447.602c.02.113.074.217.151.299l.022.002a.51.51 0 0 0 .454.126.525.525 0 0 0-.176-1.032l-.004.003zm-2.11-12.628a.438.438 0 0 0-.252.115.447.447 0 0 1-.187.273.537.537 0 0 0 .596.66.552.552 0 0 0 .452-.623.532.532 0 0 0-.609-.425zm-39.024 39.964a.545.545 0 0 0-.745.111.527.527 0 0 0 .116.736l.015.01c.218.17.534.13.703-.087l.019-.027a.517.517 0 0 0-.093-.729c-.002-.004-.009-.009-.015-.014zm7.426-10.431a.54.54 0 0 0-.744.159.533.533 0 0 0 .129.719.547.547 0 0 0 .747-.132.52.52 0 0 0-.106-.728c-.009-.006-.018-.011-.026-.018zm22.341-31.261a.557.557 0 0 0-.747.134.536.536 0 0 0 .134.746.54.54 0 0 0 .743-.159.542.542 0 0 0-.13-.721zm42.984 17.785a.315.315 0 0 0-.447-.018.315.315 0 1 0 .428.465.326.326 0 0 0 .019-.447zm-5.153-5.51a.315.315 0 0 0-.447-.018.315.315 0 1 0 .428.465.327.327 0 0 0 .019-.447zm-5.173-5.533a.303.303 0 0 0-.426-.016.292.292 0 0 0-.02.447.303.303 0 0 0 .426.016.293.293 0 0 0 .02-.447zm-19.697 22.097a.309.309 0 1 0-.021.619.31.31 0 1 0 .021-.619zm.253-7.545a.3.3 0 0 0-.32.275l-.001.024a.31.31 0 0 0 .298.32.325.325 0 0 0 .34-.295.319.319 0 0 0-.312-.323l-.005-.001zm.272-7.545a.3.3 0 0 0-.32.275l-.001.024a.31.31 0 1 0 .321-.299zm.252-7.546a.137.137 0 0 0-.087.008l-.022-.002a.33.33 0 0 0-.212.293.31.31 0 0 0 .298.32.342.342 0 0 0 .309-.215l.011-.083a.3.3 0 0 0-.276-.32l-.021-.001zm-12.944-5.9a.303.303 0 0 0-.426-.016.326.326 0 0 0-.019.447.33.33 0 0 0 .447.018.313.313 0 0 0 .006-.442l-.008-.007zm27.324 22.194a.299.299 0 0 0-.403-.185.304.304 0 0 0-.19.386l.006.016c.07.153.242.232.403.184a.313.313 0 0 0 .184-.401zm-2.661-7.092a.3.3 0 0 0-.387-.171l-.019.007a.322.322 0 0 0-.184.403c.07.153.242.232.403.184a.318.318 0 0 0 .195-.404l-.008-.019zm-2.645-7.068a.338.338 0 0 0-.403-.184.316.316 0 0 0-.184.403.299.299 0 0 0 .375.195c.01-.002.019-.006.028-.01a.304.304 0 0 0 .19-.386.034.034 0 0 0-.006-.018zm-2.644-7.069a.338.338 0 0 0-.403-.184.317.317 0 0 0-.184.403.299.299 0 0 0 .375.195c.01-.002.019-.006.028-.01a.317.317 0 0 0 .184-.404zm-21.14 20.291a.291.291 0 0 0-.408.158.31.31 0 1 0 .408-.158zm3.138-6.869a.29.29 0 0 0-.408.158.3.3 0 0 0 .135.403l.002.001c.16.074.352.005.429-.154a.303.303 0 0 0-.148-.403l-.01-.005zm3.138-6.87a.325.325 0 0 0-.426.135.322.322 0 0 0 .583.274.32.32 0 0 0-.157-.409zm3.268-6.721.003-.022a.328.328 0 0 0-.151-.15.32.32 0 0 0-.408.158.228.228 0 0 0-.023.168c.011.111.078.21.179.26a.303.303 0 0 0 .408-.158.228.228 0 0 0-.008-.256zm39.898 24.127a.343.343 0 0 0-.469-.115c-.004.001-.006.004-.009.006a.348.348 0 0 0-.113.499c.098.16.309.213.469.115l.009-.006a.366.366 0 0 0 .113-.499zm-4.652-7.262a.343.343 0 0 0-.469-.115c-.004.001-.006.004-.009.006a.362.362 0 0 0 .389.61.344.344 0 0 0 .089-.501zm-4.634-7.258a.36.36 0 1 0-.612.383l.001.002c-.002.022.017.024.037.048a.383.383 0 0 0 .463.065.366.366 0 0 0 .111-.498zm-4.655-7.26-.072-.096c-.022-.002-.039-.027-.081-.033a.332.332 0 0 0-.345.016.363.363 0 0 0 .389.61.358.358 0 0 0 .109-.497zm-22.034 27.984a.389.389 0 0 0-.425.284.354.354 0 0 0 .263.421.332.332 0 0 0 .422-.263.363.363 0 0 0-.258-.442h-.002zm1.852-8.417a.389.389 0 0 0-.425.284.354.354 0 0 0 .262.421.362.362 0 0 0 .442-.257l.001-.002a.392.392 0 0 0-.28-.446zm1.852-8.418a.389.389 0 0 0-.425.284.354.354 0 0 0 .262.421.335.335 0 0 0 .424-.283.35.35 0 0 0-.261-.422zm1.853-8.416a.37.37 0 0 0-.425.284.353.353 0 0 0 .262.421.335.335 0 0 0 .424-.283.352.352 0 0 0-.261-.422zm40.056 3.181a.354.354 0 0 0-.503.081.381.381 0 0 0 .08.504c.16.113.384.075.497-.086l.01-.015a.35.35 0 0 0-.084-.484zm-7.077-4.939a.37.37 0 0 0-.505.08.356.356 0 0 0 .086.496l.015.01a.347.347 0 0 0 .482-.083.362.362 0 0 0-.078-.503zm-20.447 23.172a.35.35 0 0 0-.398-.294l-.012.002-.02-.002a.365.365 0 0 0-.272.411.35.35 0 0 0 .398.294l.012-.002a.446.446 0 0 0 .139-.067.322.322 0 0 0 .153-.342zm-1.933-8.792a.39.39 0 0 0-.295.43c.052.19.24.309.434.273a.348.348 0 0 0 .273-.408l-.001-.005a.36.36 0 0 0-.411-.29zm-1.505-8.474a.357.357 0 0 0-.293.409.357.357 0 0 0 .409.293.357.357 0 0 0 .293-.409.35.35 0 0 0-.398-.294l-.011.001zm-1.528-8.477a.349.349 0 0 0-.272.413.33.33 0 0 0 .411.271.357.357 0 0 0 .293-.409.362.362 0 0 0-.432-.275zm-27.5 18.683a.34.34 0 0 0-.485.103.348.348 0 0 0 .083.482c.157.118.38.086.497-.071l.007-.01a.366.366 0 0 0-.102-.504zm4.945-7.067a.37.37 0 0 0-.507.101.34.34 0 0 0 .083.473c.006.005.013.008.02.012a.33.33 0 0 0 .482-.084.357.357 0 0 0-.078-.502c.002 0 .002 0 0 0zm4.947-7.07a.357.357 0 0 0-.497.086l-.01.015a.356.356 0 0 0 .587.403.38.38 0 0 0-.08-.504zm53.075-1.807a.62.62 0 0 0-.856.14.618.618 0 0 0 .99.736.646.646 0 0 0-.134-.876zm-17.725 58.456a.63.63 0 0 0-.527.698.614.614 0 0 0 .702.504.636.636 0 0 0 .526-.698.613.613 0 0 0-.701-.504zm-2.307-14.603a.612.612 0 1 0 .197 1.204.612.612 0 0 0-.197-1.204zm-2.287-14.6a.608.608 0 1 0 .177 1.202.63.63 0 0 0 .527-.698.617.617 0 0 0-.704-.504zm-2.308-14.604a.607.607 0 0 0-.505.701.612.612 0 0 0 1.207-.198.607.607 0 0 0-.702-.503zm-2.286-14.599a.61.61 0 0 0 .176 1.203.63.63 0 0 0 .527-.698.613.613 0 0 0-.703-.505zm-50.911 43.907a.616.616 0 0 0-.737.989.645.645 0 0 0 .876-.136.626.626 0 0 0-.139-.853zm8.708-11.944a.612.612 0 1 0-.721.99l.005.004a.612.612 0 1 0 .721-.99l-.005-.004zm8.708-11.945a.6.6 0 0 0-.843.105l-.01.012a.644.644 0 0 0 .136.875.622.622 0 0 0 .856-.14.6.6 0 0 0-.121-.842c-.006-.002-.012-.007-.018-.01zm8.71-11.945a.6.6 0 0 0-.843.105c-.004.004-.006.009-.01.012a.65.65 0 0 0 .136.875.62.62 0 0 0 .856-.14.585.585 0 0 0-.095-.823c-.016-.009-.03-.02-.044-.029zm8.731-11.963a.622.622 0 0 0-.856.14.617.617 0 0 0 .991.737.646.646 0 0 0-.135-.877zm37.213 20.306a.618.618 0 1 0-.203.85.63.63 0 0 0 .203-.85zm-7.709-12.609a.612.612 0 0 0-.84-.211l-.01.006a.628.628 0 0 0-.203.85.617.617 0 0 0 1.053-.645zm-33.11 46.799a.601.601 0 0 0-.725.445l-.002.011a.618.618 0 0 0 .432.745.653.653 0 0 0 .75-.453.617.617 0 0 0-.453-.748h-.002zm3.47-14.361a.588.588 0 0 0-.719.418c-.004.012-.006.025-.009.039a.596.596 0 0 0 .435.724h.001a.617.617 0 0 0 .748-.452v-.001a.588.588 0 0 0-.456-.728zm3.471-14.384a.617.617 0 0 0-.273 1.204.601.601 0 0 0 .725-.445l.003-.011a.62.62 0 0 0-.455-.748c.001 0 0 0 0 0zm3.468-14.36a.606.606 0 1 0-.268 1.182.608.608 0 0 0 .722-.436.616.616 0 0 0-.454-.746c.002 0 .002 0 0 0zm-18.182-12.665a.619.619 0 0 0-1.056.646.606.606 0 0 0 .831.2.617.617 0 0 0 .225-.846zm53.315 11.933a.584.584 0 0 0-.807-.177l-.028.018a.628.628 0 0 0-.182.853.65.65 0 0 0 .857.16.608.608 0 0 0 .16-.854zm-36.599 48.607a.618.618 0 1 0-.251 1.21.618.618 0 0 0 .251-1.21zm2.86-14.446a.651.651 0 0 0-.734.497.626.626 0 0 0 .48.709c.333.07.66-.145.73-.478a.63.63 0 0 0-.476-.728zm2.834-14.428a.607.607 0 0 0-.23 1.189c.333.07.66-.145.73-.478a.628.628 0 0 0-.5-.711zm2.859-14.445a.601.601 0 0 0-.708.466l-.003.013a.61.61 0 0 0 .48.709.586.586 0 0 0 .702-.442l.007-.038a.6.6 0 0 0-.466-.707l-.012-.001zm-35.322-7.175a.584.584 0 0 0-.807-.177l-.028.018a.604.604 0 0 0-.18.832c.19.28.567.36.854.182a.608.608 0 0 0 .161-.855zm12.241-8.202a.507.507 0 0 0-.355-.221l.003-.022a.62.62 0 0 0-.482.083.208.208 0 0 0-.099.093.603.603 0 0 0 .772.922c.024-.017.048-.037.05-.058a.44.44 0 0 0 .187-.273.577.577 0 0 0-.076-.524zm42.052 36.289a.624.624 0 0 0-.486.725.613.613 0 0 0 .729.464.601.601 0 0 0 .484-.699l-.001-.005a.634.634 0 0 0-.726-.485zm-2.886-14.448a.633.633 0 0 0-.486.725.607.607 0 0 0 1.193-.228l-.002-.015a.602.602 0 0 0-.705-.482zm-2.912-14.429a.624.624 0 0 0-.486.725.618.618 0 0 0 1.212-.24.622.622 0 0 0-.726-.485zm-46.282 32.942a.596.596 0 0 0-.839.183.603.603 0 0 0 .163.836c.282.19.664.119.858-.159a.613.613 0 0 0-.182-.86zm8.173-12.256a.596.596 0 0 0-.839.183.603.603 0 0 0 .163.836c.282.19.664.119.858-.159a.613.613 0 0 0-.165-.85l-.017-.01zm8.171-12.255a.613.613 0 0 0-.84.184.603.603 0 0 0 .163.836c.282.19.664.119.858-.159a.613.613 0 0 0-.165-.85l-.016-.011zm8.172-12.255a.634.634 0 0 0-.84.184.603.603 0 0 0 .163.836.63.63 0 0 0 .858-.159.616.616 0 0 0-.175-.856l-.006-.005zm-22.157-7.496a.465.465 0 1 0-.256.607.473.473 0 0 0 .256-.607zm56.736 7.201a.45.45 0 0 0-.582-.255l-.005.002a.467.467 0 1 0 .598.28l-.011-.027zm-34.616 30.122a.44.44 0 0 0-.592.194c-.007.013-.013.028-.019.043a.46.46 0 1 0 .611-.237zm4.373-10.21a.457.457 0 0 0-.611.237.46.46 0 0 0 .237.61.462.462 0 1 0 .374-.847zm4.374-10.212a.462.462 0 1 0 .237.61.473.473 0 0 0-.237-.61zm4.373-10.209a.48.48 0 0 0-.615.258.457.457 0 0 0 .256.592l.004.001a.442.442 0 0 0 .584-.226l.006-.013a.455.455 0 0 0-.222-.604c-.003-.005-.008-.006-.013-.008zm10.235 29.641a.457.457 0 0 0-.469.445v.004a.482.482 0 0 0 .45.468.466.466 0 0 0 .469-.45.445.445 0 0 0-.416-.469c-.012.002-.023.002-.034.002zm.123-11.098a.442.442 0 0 0-.449.436v.016a.456.456 0 0 0 .445.468h.004a.492.492 0 0 0 .473-.47.46.46 0 0 0-.467-.451l-.006.001zm.147-11.116a.491.491 0 0 0-.473.47.44.44 0 0 0 .429.449h.024a.444.444 0 0 0 .469-.415l.001-.033a.456.456 0 0 0-.445-.468c-.003-.003-.004-.003-.005-.003zm-39.179 5.955a.446.446 0 0 0-.627-.037l-.012.011a.45.45 0 0 0-.007.662c.176.179.464.18.643.004a.452.452 0 0 0 .003-.64zm7.958-7.765a.495.495 0 0 0-.664-.006.47.47 0 0 0 .657.67.494.494 0 0 0 .007-.664zm7.954-7.744a.454.454 0 0 0-.641-.028l-.023.022a.466.466 0 0 0-.004.642.462.462 0 0 0 .668-.636zm26.042 7.475a.255.255 0 1 0-.091.501.258.258 0 0 0 .288-.218.257.257 0 0 0-.197-.283zm1.043-5.98a.247.247 0 0 0-.288.215.226.226 0 0 0 .163.277l.034.006a.242.242 0 0 0 .283-.19l.001-.006a.275.275 0 0 0-.193-.302zm-8.083 15.479a.388.388 0 0 0-.555.138.38.38 0 0 0 .116.552c.19.126.446.076.573-.114a.405.405 0 0 0-.11-.561l-.024-.015zm5.358-8.512a.421.421 0 0 0-.576.135.405.405 0 0 0 .11.561l.024.015a.388.388 0 0 0 .555-.138.401.401 0 0 0-.113-.573z"/><linearGradient id="j" gradientUnits="userSpaceOnUse" x1="6193.423" y1="2119.436" x2="5413.568" y2="4205.545" gradientTransform="matrix(0.0741 0 0 0.0741 -230.5491 -49.4972)"><stop offset="0" style="stop-color:#23286b"/><stop offset=".361" style="stop-color:#1e2361"/><stop offset="1" style="stop-color:#151a4f"/></linearGradient><path fill="url(#j)" d="M187.354 73.447a.041.041 0 0 1-.023-.011 74.225 74.225 0 0 0-22.317 16.41l-18.273 132.367c47.139 34.491 90.337 25.33 98.811 23.056.991-.273 1.504-.444 1.504-.444 9.673-122.048-58.175-170.309-59.702-171.378z"/><path fill="#23286B" d="M165.019 89.849s-6.209 33.516-23.202 57.651c-10.289 14.615-23.261 17.926-46.995 8.57-21.481-8.469-29.816-13.658-29.816-13.658l-16.294 61.066s24.358 37.309 56.835 27.576c26.691-7.999 42.159 11.819 56.023 10.544 30.853-2.839 37.614-10.303 47.092-54.341 9.479-44.038-5.683-93.677-21.328-113.817"/><linearGradient id="k" gradientUnits="userSpaceOnUse" x1="5586.163" y1="1699.395" x2="5340.039" y2="1631.498" gradientTransform="matrix(0.0741 0 0 0.0741 -230.5491 -49.4972)"><stop offset="0" style="stop-color:#ffbeb6"/><stop offset="1" style="stop-color:#f29b94"/></linearGradient><path fill="url(#k)" d="M159.538 69.317s6.395 15.057 5.481 20.533a96.363 96.363 0 0 1 22.314-16.41s-10.667-14.389-10.667-17.355l-17.128 13.232z"/><path fill="#FFBEB6" d="M148.994 70.781c-9.008-2.564-14.262-10.629-16.089-10.169-1.836.449-5.977.478-6.662-1.417-.665-1.89 2.468-8.962.931-16.158a30.459 30.459 0 0 1-.375-1.955c-.005-.032-.012-.043.002-.072l-.053-.349a28.732 28.732 0 0 1-.206-2.163c5.215 1.89 9.861 2.052 11.919.672 5.833-3.901 7.026.084 13.695 4.334 6.689 4.251 11.788.835 19.667-2.042 7.888-2.864 9.115 5.238 6.324 8.403-2.783 3.176-5.019 4.725-2.755 7.782a5.417 5.417 0 0 0 1.467 1.705l-.747.775a9.874 9.874 0 0 1-.744.701l-3.606 3.081c-6.498 5.494-14.325 9.289-22.768 6.872z"/><path fill="#E94A47" d="m230.221 46.133-105.147-13.06.482-3.882L228.24 41.946a2.479 2.479 0 0 1 2.157 2.766l-.176 1.421z"/><linearGradient id="l" gradientUnits="userSpaceOnUse" x1="5272.795" y1="1020.426" x2="5616.877" y2="1899.229" gradientTransform="matrix(0.0741 0 0 0.0741 -230.5491 -49.4972)"><stop offset="0" style="stop-color:#e94a47"/><stop offset=".847" style="stop-color:#a74a47"/></linearGradient><path fill="url(#l)" d="m193.79 37.646-68.24-8.476.937-7.527c1.684-13.53 14.03-23.135 27.574-21.452l18.168 2.256c14.109 1.753 24.123 14.598 22.37 28.692l-.809 6.507z"/><path fill="#23286B" d="M176.86 59.35s5.217 1.833 11.659-4.918c6.441-6.75 5.758-12.911 5.758-12.911s-64.791-8.133-66.996-8.29c-2.205-.157-1.405-.348-9.012-7.185s-12.332 3.166-7.295 10.615c5.037 7.45 19.281 5.83 25.204 3.486 5.923-2.343 8.303-3.034 12.915 1.925 4.613 4.959 13.735 5.347 20.734.351 7.001-4.996 12.684 2.493 7.068 8.163-5.616 5.669-.035 8.764-.035 8.764z"/><path fill="#1C2868" d="M133.039 47.265a5.471 5.471 0 0 1-9.614-.954c-.321-.767.819-1.411 1.145-.633a4.164 4.164 0 0 0 7.346.921c.481-.683 1.61-.021 1.123.666z"/></svg></g><g transform="translate(931.0 768.0) rotate(0.0 134.0 12.0) scale(12.547785760604166 12.0)"><svg width="21.358" height="2" viewBox="0 0 21.358 2"><path d="M20.359 2H1a1 1 0 0 1 0-2h19.36a1 1 0 0 1 0 2z" fill="#23286B"/></svg></g></svg>